<svg width="1020" height="254" viewBox="0 0 1020 254" fill="none" xmlns="http://www.w3.org/2000/svg"><path d="M33.705 208v2h2v-2h-2zm-31.68 0h-2v2h2v-2zm0-201.6v-2h-2v2h2zm31.68 0h2v-2h-2v2zm0 82.368h-2v4.817l3.412-3.4-1.412-1.417zM116.36 6.4v-2h-.827l-.585.583L116.36 6.4zm40.608 0l1.405 1.423L161.84 4.4h-4.871v2zM63.657 98.56l-1.406-1.423-1.424 1.407 1.408 1.423 1.422-1.407zM171.945 208v2h4.792l-3.371-3.407-1.421 1.407zm-43.2 0l-1.427 1.401.588.599h.839v-2zm-95.04-96.768l1.427-1.401-3.427-3.49v4.891h2zm0 94.768H2.025v4h31.68v-4zm-29.68 2V6.4h-4V208h4zm-2-199.6h31.68v-4H2.025v4zm29.68-2v82.368h4V6.4h-4zm3.412 83.785l82.655-82.368-2.823-2.834-82.656 82.368 2.824 2.834zM116.36 8.4h40.608v-4H116.36v4zm39.202-3.423L62.25 97.137l2.811 2.846 93.312-92.16-2.811-2.846zm-93.328 94.99l108.288 109.44 2.843-2.814L65.078 97.153l-2.843 2.814zM171.945 206h-43.2v4h43.2v-4zm-41.773.599l-95.04-96.768-2.854 2.802 95.04 96.768 2.854-2.802zm-98.467-95.367V208h4v-96.768h-4zM213.313 208v2h1.316l.521-1.208-1.837-.792zm-33.696 0l-1.834-.797-1.216 2.797h3.05v-2zM267.745 5.248v-2h-1.311l-.523 1.203 1.834.797zm30.528 0l1.834-.797-.522-1.203h-1.312v2zM386.401 208v2h3.05l-1.216-2.797-1.834.797zm-33.984 0l-1.833.801.524 1.199h1.309v-2zm-21.888-50.112l1.833-.801-.524-1.199h-1.309v2zm-95.616 0v-2h-1.316l-.52 1.208 1.836.792zM282.721 45.28l1.834-.798-1.834-4.212-1.833 4.212 1.833.798zm-36.864 84.672l-1.834-.798-1.218 2.798h3.052v-2zm73.728 0v2h3.052l-1.218-2.798-1.834.798zM213.313 206h-33.696v4h33.696v-4zm-31.862 2.797L269.579 6.045l-3.668-1.594-88.128 202.752 3.668 1.594zM267.745 7.248h30.528v-4h-30.528v4zm28.694-1.203l88.128 202.752 3.668-1.594L300.107 4.451l-3.668 1.594zM386.401 206h-33.984v4h33.984v-4zm-32.151 1.199l-21.888-50.112-3.666 1.602 21.888 50.112 3.666-1.602zm-23.721-51.311h-95.616v4h95.616v-4zm-97.452 1.208l-21.6 50.112 3.673 1.584 21.6-50.112-3.673-1.584zm47.811-112.614l-36.865 84.672 3.668 1.596 36.864-84.672-3.667-1.596zm-35.031 87.47h73.728v-4h-73.728v4zm75.562-2.798l-36.864-84.672-3.667 1.596 36.864 84.672 3.667-1.596zM449.392 208v2h2v-2h-2zm-31.68 0h-2v2h2v-2zm0-201.6v-2h-2v2h2zm135.936 16.416l-1.365 1.461.024.023.026.023 1.315-1.507zm0 85.248l-1.367-1.46-.005.005-.006.006 1.378 1.449zm-104.256 16.704v-2h-2v2h2zm0-89.28v-2h-2v2h2zm0 60.192h-2v2h2v-2zm80.352-7.776l1.222 1.584.014-.011.014-.011-1.25-1.562zm0-44.64L528.5 44.83l.012.009.011.009 1.221-1.584zM449.392 206h-31.68v4h31.68v-4zm-29.68 2V6.4h-4V208h4zm-2-199.6H504.4v-4h-86.688v4zm86.688 0c20.779 0 36.647 5.378 47.883 15.877l2.731-2.922C542.826 9.966 525.862 4.4 504.4 4.4v4zm47.933 15.923c11.619 10.144 17.459 23.59 17.459 40.541h4c0-17.992-6.256-32.579-18.828-43.555l-2.631 3.014zm17.459 40.541c0 16.953-5.843 30.813-17.511 41.74l2.734 2.92c12.524-11.729 18.777-26.669 18.777-44.66h-4zm-17.522 41.751c-11.237 10.684-27.1 16.153-47.87 16.153v4c21.471 0 38.44-5.667 50.626-17.255l-2.756-2.898zm-47.87 16.153h-55.008v4H504.4v-4zm-57.008 2V208h4v-83.232h-4zm0-89.28V95.68h4V35.488h-4zm2 62.192h52.416v-4h-52.416v4zm52.416 0c12.172 0 21.971-2.649 29.158-8.192l-2.443-3.168c-6.254 4.825-15.079 7.36-26.715 7.36v4zm29.186-8.214c7.253-5.803 10.83-13.898 10.83-24.026h-4c0 9.072-3.143 15.953-9.329 20.902l2.499 3.124zm10.83-24.026c0-10.127-3.578-18.144-10.858-23.76l-2.443 3.168c6.16 4.752 9.301 11.52 9.301 20.592h4zm-10.836-23.742c-7.01-5.567-16.83-8.21-29.18-8.21v4c11.842 0 20.647 2.541 26.692 7.342l2.488-3.132zm-29.18-8.21h-52.416v4h52.416v-4zM601.859 251.2v2h2v-2h-2zm-29.952 0h-2v2h2v-2zm0-72.288v-2h-2v2h2zm19.296 0v2h1.074l.593-.895-1.667-1.105zm23.328-56.16l1.948.452.003-.011-1.951-.441zM622.019 6.4v-2h-2v2h2zm133.344 0h2v-2h-2v2zm0 172.512h-2v2h2v-2zm29.088 0h2v-2h-2v2zm0 72.288v2h2v-2h-2zm-29.952 0h-2v2h2v-2zm0-43.2h2v-2h-2v2zm-152.64 0v-2h-2v2h2zm23.904-29.088l-1.701-1.053-1.889 3.053h3.59v-2zm97.92 0v2h2v-2h-2zm0-143.424h2v-2h-2v2zm-70.848 0v-2h-2v2h2zm-6.048 84.672l-1.97-.348v.003l1.97.345zM601.859 249.2h-29.952v4h29.952v-4zm-27.952 2v-72.288h-4V251.2h4zm-2-70.288h19.296v-4h-19.296v4zm20.963-.895c10.711-16.163 18.571-35.112 23.609-56.813l-3.896-.904c-4.946 21.307-12.638 39.798-23.047 55.507l3.334 2.21zm23.612-56.824c5.038-22.286 7.537-51.925 7.537-88.857h-4c0 36.796-2.493 66.101-7.439 87.975l3.902.882zm7.537-88.857V6.4h-4v27.936h4zm-2-25.936h133.344v-4H622.019v4zm131.344-2v172.512h4V6.4h-4zm2 174.512h29.088v-4h-29.088v4zm27.088-2V251.2h4v-72.288h-4zm2 70.288h-29.952v4h29.952v-4zm-27.952 2V208h-4v43.2h4zm-2-45.2h-152.64v4h152.64v-4zm-154.64 2v43.2h4V208h-4zm25.904-27.088h97.92v-4h-97.92v4zm99.92-2V35.488h-4v143.424h4zm-2-145.424h-70.848v4h70.848v-4zm-72.848 2c0 33.53-2.013 61.63-6.018 84.324l3.94.696c4.059-23.002 6.078-51.35 6.078-85.02h-4zm-6.018 84.327c-3.998 22.846-10.932 42.177-20.755 58.044l3.402 2.106c10.145-16.389 17.227-36.226 21.293-59.46l-3.94-.69zm219.181 40.953l-1.453 1.374.004.006.005.005 1.444-1.385zm100.224 0l1.443 1.385.009-.01.009-.01-1.461-1.365zm0-106.848l-1.453 1.375.009.01 1.444-1.385zm-100.224 0l1.443 1.384.009-.01-1.452-1.374zm123.84 127.872l1.427 1.4.007-.006-1.434-1.394zm-147.457 0l-1.447 1.38.009.01.011.01 1.427-1.4zm0-148.896l-1.434-1.394 1.434 1.394zm147.457 0l-1.435 1.394.007.006 1.428-1.4zM862.554 162.153c14.011 14.603 31.237 21.927 51.555 21.927v-4c-19.233 0-35.415-6.884-48.668-20.697l-2.887 2.77zm51.555 21.927c20.319 0 37.545-7.324 51.556-21.927l-2.887-2.77c-13.253 13.813-29.435 20.697-48.669 20.697v4zm51.574-21.947c13.999-14.985 20.987-33.338 20.987-54.933h-4c0 20.645-6.645 38.004-19.91 52.203l2.923 2.73zM986.67 107.2c0-21.782-6.985-40.052-21.005-54.665l-2.887 2.77c13.244 13.803 19.892 31.053 19.892 51.895h4zm-20.996-54.655c-14.009-14.798-31.237-22.225-51.565-22.225v4c19.225 0 35.405 6.973 48.66 20.975l2.905-2.75zM914.109 30.32c-20.327 0-37.555 7.427-51.564 22.225l2.905 2.75c13.255-14.002 29.435-20.975 48.659-20.975v-4zm-51.555 22.216c-13.837 14.43-20.716 32.704-20.716 54.664h4c0-21.048 6.56-38.294 19.603-51.896l-2.887-2.768zM841.838 107.2c0 21.96 6.879 40.325 20.707 54.942l2.905-2.748c-13.052-13.799-19.612-31.146-19.612-52.194h-4zm144.572 73.192c-19.185 19.56-43.235 29.352-72.301 29.352v4c30.071 0 55.173-10.176 75.156-30.552l-2.855-2.8zm-72.301 29.352c-29.065 0-53.115-9.792-72.3-29.352l-2.855 2.8c19.983 20.376 45.085 30.552 75.155 30.552v-4zm-72.28-29.332c-19.02-19.962-28.536-44.324-28.536-73.212h-3.999c0 29.864 9.876 55.23 29.64 75.972l2.895-2.76zM813.293 107.2c0-29.084 9.518-53.34 28.523-72.91l-2.869-2.787c-19.779 20.366-29.653 45.644-29.653 75.697h3.999zm28.523-72.91c19.186-19.75 43.235-29.634 72.293-29.634v-4c-30.077 0-55.18 10.277-75.162 30.846l2.869 2.788zm72.293-29.634c29.059 0 53.108 9.883 72.294 29.634l2.869-2.788C969.29 10.932 944.187.656 914.109.656v4zm72.301 29.64c19.19 19.572 28.8 43.827 28.8 72.904h4c0-30.059-9.97-55.34-29.945-75.704l-2.855 2.8zm28.8 72.904c0 29.078-9.61 53.433-28.807 73.198l2.869 2.788c19.968-20.555 29.938-45.928 29.938-75.986h-4z" fill="#000" fill-opacity=".2"/></svg>