<svg xmlns="http://www.w3.org/2000/svg" xmlns:xlink="http://www.w3.org/1999/xlink" width="793.701" height="1122.52" viewBox="0 0 595.276 841.89" fill-rule="evenodd"><path d="M562.433 690.675H278.968V407.21h283.465v283.465z" fill="#2c2c2b"/><path d="M364.91 619.846a1.97 1.97 0 00-.123.966l.115.971a2.868 2.868 0 01-.173.837 1.683 1.683 0 00-.513-.04.948.948 0 00-.469.208c-.155.12-.279.186-.367.196-.135.016-.321-.017-.557-.103l-1.72-2.176c.102.668.294 1.245.58 1.734l.431.765c-.904.219-1.416.28-1.542.182l-.203.296-.591-.678c-.388.546-.432 1.31-.135 2.294.353 1.068.424 1.852.21 2.353.374.478.796.689 1.265.633a.808.808 0 00.514-.265c.183-.565.363-1.13.546-1.696.281-.691.623-1.059 1.024-1.107.313-.037.693.099 1.136.409.515.143.79.36.826.649.021.179-.075.479-.284.9-.212.424-.304.745-.277.97a.702.702 0 00.063.229c-.31.264-.577.647-.8 1.149-.223.503-.538.858-.944 1.064-.341.381-.666.589-.981.626-.245.028-.626-.135-1.144-.493-.521-.358-.991-.511-1.415-.46-.204-.384-.673-.793-1.404-1.229-.731-.433-1.197-.922-1.397-1.465.004.045-.017-.133-.064-.537-.027-.222-.134-.358-.32-.403l.239-.266c-.338.017-.529-.164-.574-.543-.005-.045-.014-.136-.032-.269.01-.114.011-.206.002-.273-.031-.268-.133-.448-.301-.541l-.139-1.173c-.073-.605-.224-1.029-.458-1.273l.371-4.328c.253-1.684.737-2.567 1.452-2.653a.97.97 0 01.344.027c.597-.683 1.354-1.079 2.271-1.187 1.007-.12 2.143.108 3.413.682a12.787 12.787 0 012.125 5.018zm-4.89-3.397l-.202.296c-.155.041-.344-.027-.569-.204l.092.77c-.316.399-.416.991-.302 1.769.16 1.342.236 1.989.233 1.945l1.009-.086c.462-.304.658-.77.582-1.395-.037-.312-.182-.823-.436-1.529s-.39-1.228-.407-1.566zm17.772 6.526l.436 5.963c-.222.231-.594.343-1.115.337-.568 0-.925.042-1.073.127l-.196-.214c-.092.194-.193.294-.303.308-.067.008-.186-.034-.356-.128-.168-.093-.309-.134-.421-.12a.435.435 0 00-.228.095l-.906-5.637.677-.591-.759-.385c.041.154-.108-1.189-.445-4.027-.187-1.587-.621-2.838-1.294-3.756-.434.754-.612 1.688-.535 2.8.074 1.113.175 2.196.299 3.245l-.24.267c.14.028.258.253.352.671l-.237.302c.12.052.237.278.352.67l.289 2.721a1.811 1.811 0 00-.151 1.004c.026.223.116.558.27 1.003.157.446.246.782.273 1.006.04.335-.013.658-.157.971l-1.408.166c-.692.083-1.206.053-1.54-.089a3.291 3.291 0 01-.291-1.02c-.05-.424-.015-1.023.11-1.797.123-.773.164-1.329.125-1.664-.077-.648-.401-1.187-.974-1.617.417-1.07.551-2.242.399-3.516a8.9 8.9 0 00-.126-.766c.447-.054.705-.367.773-.943.123-.876.193-1.336.211-1.383l-.919-3.155c.4-.252.79-.401 1.169-.446.515-.059.882.077 1.104.413.005.046.03.269.079.671.011.271.111.451.304.542.51-.853 1.278-1.545 2.303-2.075.487.1.974.19 1.459.268.543.186.909.504 1.099.958l.402 3.386c.146 1.229.375 2.3.687 3.216l.095 1.076c.062.536.198.917.407 1.143zm12.428-6.134a1.965 1.965 0 00-.123.968l.115.971a2.884 2.884 0 01-.174.837 1.609 1.609 0 00-.515-.041.946.946 0 00-.466.208c-.158.121-.28.186-.368.196-.135.017-.321-.017-.555-.103l-1.722-2.176c.102.668.295 1.246.58 1.733.144.256.286.51.432.764-.904.222-1.417.283-1.543.184l-.203.296-.591-.678c-.388.545-.434 1.309-.135 2.294.354 1.069.425 1.854.212 2.355.373.477.794.687 1.264.631a.81.81 0 00.512-.264l.547-1.697c.281-.69.622-1.06 1.025-1.108.312-.036.692.1 1.135.409.515.144.792.36.826.651.02.178-.075.479-.284.899-.211.422-.303.746-.277.968.011.09.031.167.063.23-.309.264-.577.648-.799 1.15-.225.502-.539.857-.946 1.063-.34.381-.665.59-.979.627-.246.029-.628-.134-1.146-.492-.519-.358-.99-.513-1.414-.462-.205-.384-.672-.793-1.404-1.227-.731-.435-1.198-.921-1.398-1.465l-.064-.537c-.026-.223-.134-.358-.319-.405l.24-.266c-.338.019-.53-.163-.574-.544l-.033-.268c.009-.114.01-.205.003-.271-.033-.269-.133-.45-.302-.542l-.139-1.174c-.072-.603-.224-1.028-.458-1.271.122-1.444.247-2.885.369-4.327.255-1.684.739-2.57 1.453-2.654a.907.907 0 01.345.025 3.458 3.458 0 012.271-1.186c1.008-.119 2.143.108 3.414.683a12.799 12.799 0 012.125 5.016zm-4.891-3.397l-.202.296c-.154.04-.344-.027-.569-.204l.091.771c-.314.4-.415.99-.3 1.769l.231 1.945 1.012-.086c.46-.305.654-.769.58-1.395-.035-.313-.182-.821-.436-1.528-.255-.707-.39-1.23-.407-1.568zm15.539.331c-1.386-.039-2.303-.021-2.747.053-.601.458-.895 1.241-.876 2.349a514.316 514.316 0 00-.011 2.79l-.264-.241-.482.534c.109.145.375.193.799.142.23.404.377.884.443 1.444.07.58.039 1.082-.093 1.507-.366.337-.746.676-1.136 1.018-.39.34-.809.537-1.256.591a3.835 3.835 0 01-.678.013l-.163-1.374c-.069-.582-.212-1.019-.427-1.31l1.189-.856c-.11-.166-.378-.226-.803-.175l-1.781-9.002c.628-.437 1.356-.603 2.185-.497.09-.193.269-.305.538-.337l.635-.074c.355.116.548.308.581.577.011.112-.007.284-.058.516-.053.233-.074.394-.063.483.033.268.213.463.545.582.419-.661.85-1.336 1.289-2.024.589-.771 1.29-1.16 2.106-1.167l.528 4.458zm-3.26 10.62c.272.58.441 1.138.505 1.673.075.627-.037 1.127-.333 1.502-.251-.016-.48-.232-.688-.649-.208-.417-.451-.644-.726-.678a8.458 8.458 0 01-.278.814c-.1.306-.293.488-.581.545-.199-.159-.321-.405-.36-.739l-.107-.905c.093.012.183.012.272.002.313-.038.65-.3 1.013-.784.361-.484.687-.743.979-.778.088-.011.189-.011.304-.003zm17.467-16.385l-.77.092c.053-.12-.046-.279-.297-.476-.297.355-.422.731-.375 1.133-.021-.179.114.282.402 1.381.09.374.157.74.199 1.096.172 1.455-.092 2.857-.792 4.207-.725.768-1.703 1.224-2.931 1.37a5.853 5.853 0 01-.642.042c-.016-.52.191-1.257.62-2.215.43-.957.615-1.704.55-2.24a2.67 2.67 0 00-.273-.887c-.069.189-.303.308-.706.356-.048-.402-.271-.796-.666-1.179-.398-.382-.61-.778-.635-1.182-.127.061-.19.17-.183.326.009.159.011.317.007.477l-.529-.449c-.405.798-.544 1.719-.419 2.77.06.515.284 1.44.669 2.777.325 1.207.495 2.162.51 2.864a.372.372 0 00-.39.164c-.097.136-.194.267-.291.391.102.871.657 1.247 1.663 1.129l.284-.033c.123-.017.207-.025.251-.031.782-.093 1.29.063 1.518.465-.04.618-.079 1.246-.117 1.885-.071.734-.428 1.16-1.071 1.282l-1.124-.885c-.145.108-.174.36-.08.757-.13.061-.306.002-.53-.175.003.225-.132.623-.405 1.186-.272.566-.394.971-.365 1.217.039.335.32.596.84.784l2.716-.324c.003.023.026.213.067.571.028.223.135.37.324.438.3-.15.423-.458.368-.928a27.17 27.17 0 01-.049-.402 3.252 3.252 0 01-.077-.364c-.051-.425.113-.661.494-.705a1.99 1.99 0 01.476.011c.156-.222.208-.546.158-.971-.077-.647-.119-.995-.122-1.039a1.807 1.807 0 01-.655-1.214c-.035-.289-.009-.741.077-1.352.085-.609.113-1.062.077-1.351l.739-.088c.488.305.989.608 1.501.91.589.383.999.782 1.23 1.196.229.415.373.857.429 1.326.09.76-.043 1.738-.399 2.937-.678.986-1.423 1.664-2.241 2.034a.403.403 0 00-.242-.039c-.135.015-.344.108-.629.278-.287.17-.518.266-.698.287a.925.925 0 01-.344-.028c.005-.159-.106-.326-.332-.504-.189.112-.317.417-.383.912-.067.495-.234.759-.502.79a1.246 1.246 0 01-.447-.049c-.022.003-.369.045-1.041.124-.533.086-.922.052-1.166-.1-1.919-.315-3.039-1.247-3.357-2.796-.001-.77.399-1.497 1.202-2.182.117.031.287-.057.513-.265-.058-.288-.346-.758-.865-1.41-.519-.652-.804-1.19-.855-1.615a1.876 1.876 0 01.212-1.08c.713-.491 1.02-1.141.926-1.945a2.672 2.672 0 00-.566-1.326c-.579-.295-.927-.932-1.043-1.917-.033-.268-.025-1.163.022-2.687.166-.7.519-1.353 1.056-1.962.541-.608 1.14-.997 1.801-1.167l.296.205c.158.004.442-.047.849-.153a7.62 7.62 0 01.911-.192c.761-.091 1.265.156 1.516.737l.095.805c.017.315.119.529.314.642.332-.265.449-.709.352-1.333-.11-.735-.087-1.214.067-1.435.314-.99 1.298-1.866 2.953-2.629.204.204.324.438.356.707.021.177-.003.465-.069.857-.066.393-.086.701-.06.926.019.155.059.309.123.46zm12.657-.754l.03-.037c-.01.114-.247 1.831-.716 5.149-.294 2.098-.472 3.853-.53 5.264-.224.593-.391 1.525-.5 2.797-.11 1.271-.289 2.204-.535 2.8.192.86.109 1.737-.249 2.629-.359.892-.879 1.606-1.563 2.141a.594.594 0 00-.277-.036c-.135.016-.346.093-.636.23-.291.135-.513.214-.67.232a.815.815 0 01-.56-.137c-.895.106-1.551.104-1.972-.005-.261-.672-.419-1.219-.468-1.643-.082-.694.087-1.088.506-1.183.491.123.914.163 1.273.121.49-.057.93-.269 1.318-.632.008-.116.074-.288.194-.515.12-.231.175-.391.164-.481-.013-.11-.106-.213-.275-.306a43.842 43.842 0 01-.169-1.714c-.113-.757-.273-1.338-.479-1.745.016-.046.072-.257.162-.631.061-.256.082-.462.064-.619-.037-.313-.257-.536-.659-.67-.077-.648-.32-1.509-.731-2.582-.41-1.073-.661-1.898-.752-2.477a27.237 27.237 0 01-.126-1.346c-.076-.646-.213-1.119-.406-1.412-.049-.22-.187-.625-.415-1.209-.197-.521-.312-.915-.344-1.183-.039-.336.006-.613.139-.832l3.219-.383c.192.477.698 2.162 1.517 5.057-.013.091-.012.193.002.305.027.223.119.529.279.918.211.45.338.753.379.906.248-.776.396-1.916.446-3.418.051-1.659.142-2.803.272-3.431.117.032.242.04.376.022.178-.02.441-.096.789-.228.346-.132.611-.208.788-.23.448-.052.818.118 1.115.514zm19.849-7.762l.03-.038c-.074 1.664.168 4.101.732 7.309.562 3.209.794 5.644.697 7.309a.768.768 0 01-.261.101c-.155.018-.314-.077-.475-.284-.16-.208-.276-.329-.349-.367a1.592 1.592 0 00-.989.253c-.318.197-.623.38-.921.552.021-.004.426.051 1.208.162.462.059.785.213.974.462a.995.995 0 00-.103.557c.023.2.236.571.642 1.113.037.518.061 1.296.072 2.336-.006.908.021 1.609.08 2.1.063.536.169 1.055.32 1.559a2.385 2.385 0 01-.657.181c-.493.058-.966-.113-1.422-.513-.203-.178-.533-.582-.993-1.208a3.055 3.055 0 00-.082-.414.413.413 0 00-.274-.291l-.169.292-.33-.199c-.058.279-.126.55-.209.808-.077.303-.261.484-.548.541l-.26-.174c-.877.24-1.717.227-2.519-.04-1.343-1.382-2.11-2.888-2.304-4.521a6.081 6.081 0 010-1.427l-.192-.181c-.285-2.595-.409-4.315-.373-5.158.114-1.893.698-3.368 1.752-4.422.202-.205.438-.324.706-.357.201-.023.493.01.879.1.384.091.665.125.845.104l.891.643c.257-.325.349-.791.277-1.395a16.039 16.039 0 00-.191-1.029c-.089-.375-.123-.654-.098-.839.146-.107.212-.218.199-.33-.009-.066-.089-.164-.239-.294-.152-.13-.234-.25-.248-.361a.427.427 0 01.04-.243l.045-2.487c1.372-.277 2.644-.248 3.817.09zm-2.141 15.178c-.275-.42-.453-.942-.526-1.568-.034-.29-.057-.713-.066-1.268-.01-.553-.029-.954-.059-1.2a3.742 3.742 0 00-.206-.894 1.15 1.15 0 00.126-.66c-.02-.179-.114-.434-.279-.766-.164-.332-.257-.597-.282-.799a1.392 1.392 0 01.016-.444l-.179.497c-.42.095-.694.071-.825-.072l.151.696c-.152.245-.296.364-.433.358.077.263.131.527.163.797.042.356.038.809-.01 1.361a24.912 24.912 0 00-.083 1.3c.173.502.295 1.155.369 1.962l.24 2.012c.258 1.624.796 2.693 1.603 3.209l-.507-1.401c.049-.166.283-.295.702-.39.04-.253.04-.719.005-1.394-.068-.581-.044-1.025.08-1.336zm13.992-7.848c-1.387-.039-2.303-.02-2.747.054-.603.457-.897 1.24-.876 2.347a514.807 514.807 0 00-.011 2.791l-.266-.241-.481.533c.109.145.376.193.8.143.228.404.377.885.442 1.444.069.581.038 1.082-.093 1.505-.366.339-.747.679-1.135 1.02-.392.341-.809.538-1.256.59a3.84 3.84 0 01-.679.014l-.163-1.374c-.07-.583-.211-1.018-.428-1.31l1.19-.856c-.11-.166-.377-.227-.802-.176l-1.782-9.002c.627-.436 1.356-.602 2.185-.497.09-.193.27-.304.537-.335.402-.049.613-.074.637-.076.353.118.547.308.579.577.013.112-.007.285-.058.517-.051.233-.073.395-.062.483.033.268.213.464.545.582.42-.662.849-1.335 1.29-2.024.588-.772 1.29-1.16 2.104-1.168l.53 4.459zm-3.26 10.619c.271.582.44 1.138.504 1.674.074.626-.037 1.127-.332 1.502-.252-.015-.481-.232-.689-.649-.208-.418-.45-.644-.725-.679a7.968 7.968 0 01-.28.815c-.099.306-.292.488-.58.544-.2-.158-.321-.404-.36-.738l-.107-.906c.092.013.183.013.273.002.313-.037.649-.298 1.011-.783.362-.484.687-.743.979-.779.088-.01.19-.011.306-.003zm9.424-17.4a5.71 5.71 0 01-1.746.48c-1.184.138-1.822.214-1.911.226.014-.274-.03-.642-.131-1.107a50.827 50.827 0 01-.168-1.136c-.083-.691.016-1.191.298-1.498.129-.06.271-.1.427-.119.224-.026.59-.006 1.094.057.507.065.904.08 1.196.045.179-.021.356-.063.53-.13.212.269.34.595.385.974.028.224.024.58-.008 1.072-.032.493-.021.869.034 1.136zm1.896 14.256c-.118.353-.14.821-.07 1.402.019.179.063.456.131.833.046.381.078.661.099.839.122 1.028-.138 1.694-.784 1.996-.089.012-.591.071-1.507.18-.623.096-1.114.074-1.469-.064.153-.245.208-.534.168-.87-.042-.356-.165-.636-.371-.84-.055-1.987-.246-4.355-.573-7.105-.607-4.937-.893-7.247-.855-6.936 1.16-.34 1.919-.533 2.276-.575.894-.106 1.463.098 1.705.614-.216.479-.174 1.17.128 2.076.299.904.345 1.618.135 2.141.314.371.427.969.332 1.797-.095.827.016 1.415.327 1.763.06.107.094.215.108.327.019.156-.009.353-.083.588-.074.235-.105.409-.091.521.015.133.096.248.245.345-.128.082-.182.18-.169.292.009.067.066.175.174.319.106.144.155.264.144.357zm12.172-3.417l.437 5.966c-.224.23-.595.342-1.116.337-.568-.001-.925.04-1.074.128l-.196-.217c-.091.193-.192.295-.303.309-.067.007-.185-.035-.355-.129-.17-.092-.31-.132-.421-.12a.423.423 0 00-.229.096l-.907-5.638.68-.59-.76-.384c.04.151-.109-1.19-.443-4.029-.19-1.586-.623-2.837-1.298-3.755-.432.754-.61 1.686-.533 2.799.074 1.115.175 2.196.299 3.245l-.241.267c.139.028.257.254.353.671l-.238.302c.122.053.238.277.353.671l.29 2.72a1.81 1.81 0 00-.153 1.004c.027.224.117.559.271 1.004.155.447.246.781.273 1.005.039.335-.013.659-.159.97l-1.406.167c-.693.083-1.207.052-1.54-.089a3.285 3.285 0 01-.292-1.02c-.05-.423-.014-1.022.11-1.797.124-.774.165-1.33.126-1.664-.078-.647-.402-1.186-.974-1.618.417-1.069.551-2.241.399-3.514a9.344 9.344 0 00-.127-.767c.448-.054.705-.367.773-.942.124-.876.194-1.337.211-1.384l-.918-3.155c.4-.251.789-.4 1.17-.446.514-.059.881.078 1.103.414l.08.671c.008.271.109.451.302.541.51-.853 1.278-1.546 2.303-2.074.488.1.974.189 1.46.269.544.184.909.502 1.098.958l.402 3.384c.145 1.229.376 2.3.688 3.216l.093 1.076c.065.536.2.918.409 1.142zm6.311-14.416l.003.035c-.331.833-.444 1.98-.339 3.439.126 1.821.157 2.939.092 3.355-.132 1.171-.673 2.063-1.62 2.674-.096.329-.192.669-.287 1.018-.177.408-.39.625-.635.656-.203.023-.425-.052-.673-.227-.61-4.165-.811-7.972-.608-11.418l-.186-1.575c-.085-.716-.064-1.285.068-1.709.159-.177.395-.285.71-.32a1.16 1.16 0 01.765.146c.023-.004.381-.046 1.073-.128.537-.063.926-.018 1.171.132-.009.117-.007.229.008.34.039.336.26.768.664 1.298.401.53.619.919.647 1.163.048.403-.237.777-.853 1.121zm5.089 3.341l.033-.004c.175.546.009 1.143-.502 1.793-.591.75-.878 1.283-.864 1.599-.258.506-.339 1.139-.25 1.899l.064.536.064.536c.103.871-.064 1.572-.5 2.099.648.491 1.105 1.195 1.372 2.115.15.504.291 1.394.42 2.67-.54.427-.775.919-.709 1.477.045.381.234.721.562 1.022-.111.012-.331.113-.66.299-.33.186-.583.289-.762.311-.38.045-.685-.133-.913-.537-.077-1.781-.484-3.308-1.225-4.579-.219.615-.293 1.44-.216 2.473l.295 2.48c.034.675.012 1.256-.065 1.741l-3.748-.064-.188-8.171c.414-.14.914-.606 1.5-1.401.488-.669 1.048-.997 1.685-.984l.443-.561c-.4-.315-.623-.675-.67-1.076-.047-.403.102-.941.454-1.618.405-.773.626-1.31.657-1.608.094-.735.174-1.222.236-1.455.161-.541.41-.933.745-1.178.137.008.506.076 1.111.209.463.08.85.103 1.166.067.153-.02.309-.049.465-.09z" fill="#adcd5c"/><path d="M327.491 564.682c-.815.208-.379 1.419.422 1.148 1.078-.108.459-1.479-.422-1.148zm187.91-.133c-.499-2.955-1.045-5.906-1.56-8.864.459-.67.881-1.4.846-2.227.115-3.297-.544-6.564-1.183-9.789-.351-.122-1.041-.357-1.39-.471-1.375-3.862-1.215-8.03-1.086-12.066a63.55 63.55 0 00-.92-.543c-.435-2.115-.639-4.286-1.414-6.328-.863-2.073-3.716-1.977-5.693-1.854-2.146.026-3.614 1.67-4.427 3.342-1.949 3.984-2.541 8.366-3.359 12.635-3.47 11.144-4.247 22.773-5.65 34.253-.096 1.227-.58 2.567.18 3.706.016.31.035.939.05 1.257l.508.202c.031.376.111 1.126.146 1.506-.149-.348-.461-1.037-.619-1.387-.87.701-.604 2.126-.961 3.125l1.253-.47-.699.895c.21.284.617.846.819 1.13.172-.006.51-.02.679-.025-.311-2.02-.236-4.11.525-6.042.47-.94.243-1.972-.024-2.931a2.896 2.896 0 012.012-.169c-.608-.249-1.262-.454-1.642-.992.254-.845.345-1.734.766-2.528 0 .739-.024 1.486-.079 2.231.298.132.891.402 1.189.538.29-1.332.554-2.662.842-3.993l-1.016-.035c.016.5.041 1.493.06 1.989-.592-.63-1.286-3.006.46-2.225-.026-.357-.067-1.079-.089-1.436.297.262.593.525.89.8.084-.92.132-1.866.478-2.745.758-.19 1.437.294 2.125.507.171 1.355-.118 2.696-.524 3.992 1.702-.662 3.729.009 5.562-.117.53 3.426 1.899 6.682 2.989 9.988.588.131 1.19.262 1.785.395-.391.132-1.168.395-1.563.519 1.04 1.433 1.243 3.695 3.024 4.464l-.02 1.083a4.7 4.7 0 001.668-.294l-.653-.527-.79.164.729-.577a27.687 27.687 0 00-1.684-3.311c1.774-.019 1.327 2.494 2.912 2.693-.477-3.13-2.617-6.159-1.9-9.385.824-.109 1.687-.258 2.469.119.459.803.415 1.733-.236 2.429.903-.272.839-1.307 1.172-2-.43-.377-.867-.757-1.296-1.129.575-.943 1.155-1.964 2.479-2.028-.027 2.08-.099 4.167.036 6.234l.534.422c-.22.212-.669.629-.893.836.395-.021 1.191-.067 1.575-.086-.218-.412-.433-.826-.65-1.233l.384-.187c.069-.303.2-.906.271-1.21-.06-2.058-.162-4.396 1.088-6.211 1.003-1.327.81-3.025.835-4.562.128-.81-.446-1.479-1.32-1.477zm-16.926-4.503c-.294-3.112.719-6.18 1.541-9.161.956 2.585 1.078 5.36 1.464 8.053.057 1.647-1.828 1.768-3.005 1.108zm-168.841 12.369c-.891.387-.297 1.829.582 1.866.826-.345.262-1.869-.582-1.866zm36.006-68.364c-.084.829-1.207.213-1.071 1.448.147 1.336 1.698 5.072 3.071 6.74 3.863 4.69 7.759 3.97 10.531 1.734 1.275-1.033 1.948 1.747 7.435 1.154 4.037-.433 6.457-2.208 9.086-4.046 5.273 1.968 13.433 1.198 17.55-1.158 1.625 1.965 4.51 2.323 7.64 2.327 4.733.004 9.352-1.443 11.711-2.892 4.249 3.064 13.073 3.586 18.236 1.337 4.097 4.268 10.849 4.782 15.074 2.894 2.548-1.138 3.388 2.676 7.639 1.538 3.267-.868 6.563-6.19 7.325-9.489.466-2.013-1.625-.636-1.118-2.298 2.614-8.559 2.256-14.415 1.226-22.33-1.73 2.765-3.858 10.174-6.327 13.206-.027.162-.049.323-.073.478v-.384c.024-.026.046-.061.073-.094l1.577-10.505c1.377-7.633.598-22.781-2.27-28.14-3.612 14.665-10.595 24.431-21.887 31.802-1.663-3.916-3.573-9.416-5.371-11.567-3.304 2.89-6.608 5.783-9.915 8.674l-2.681 3.278c-5.739-3.196-8.541-8.694-11.769-12.528-.068-.13-.14-.259-.21-.386-2.564 3.113-5.678 12.285-9.909 13.107-5.636-7.846-9.348-9.373-12.392-11.759-1.729 3.697-4.298 7.245-5.16 11.566h-.205c-10.421-6.918-19.864-17.437-21.895-31.996h-.206c-1.058 5.858-2.743 8.595-2.683 20.622.034 6.487 2.01 12.784 2.477 18.698h-.204c-1.675-4.51-5.371-8.61-5.989-13.875h-.205c-2.092 5.478-1.113 13.943 0 18.5.411 1.694 1.013 3.097.889 4.344zm99.018 18.198c-.055 1.071.224 2.13 1.436 2.498-.598-1.59-.037-3.705-1.334-4.959.351.785.769 1.817-.102 2.461zm28.791 51.192c-.006-.003-.009-.003-.015-.007l.015.01v-.003zM390.34 549.456c.034-2.843-1.259-5.456-1.992-8.169.1-.313.311-.942.415-1.255-1.813-6.036-5.121-11.562-7.626-17.35-.549-.745.94-1.594.007-2.199-1.14-.189-2.305-.187-3.463-.201-2.282.926-4.02 2.809-6.438 3.513-4.508 1.389-6.85 5.746-7.993 9.753-2.481 8.763-1.874 17.924-2.21 26.898.483 2.86.093 5.865 1.23 8.604.36 1.143.441 2.34.802 3.483.777.119.929.781 1.142 1.357-.149.255-.456.756-.607 1.009.394 0 1.188-.008 1.581-.008-1.06 1.147.304 3.242 1.876 2.957-.04.372-.078.746-.123 1.124 3.001 3.254 8.134 4.785 12.486 3.13-.543-.753-1.555-.595-2.393-.62 1.004-.459 2.07-.798 3.127-1.137.077.282.235.84.31 1.12 2.266-1.444 4.713-3.063 5.646-5.592.248-.125.753-.361.997-.482.279-1.243 2.454-2.556 1.189-3.705 1.625-2.203 1.53-4.969 2.674-7.357.278-1.618.945-3.301.442-4.933-.353-3.307-.125-6.704-1.079-9.94zm-18.915 31.598c-.48.537-1.781-.138-1.255-.775.486-.24 1.537.181 1.255.775zm3.898-16.047c-1.649-.392-2.111-2.177-2.642-3.477-1.019-3.626-.782-7.427-.721-11.138.01-3.65-.219-7.519 1.686-10.843.269-.04.822-.115 1.094-.156 2.404 4.666 2.749 9.937 2.749 15.037-.024 3.575.175 7.513-2.166 10.577zm52.028 9.119c.151-.908.93-1.88.269-2.736-.158.781-.393 1.543-.634 2.308.589 1.128.26 2.62 1.355 3.493a4.975 4.975 0 00-.598-2.185c.821-.551.518-.814-.392-.88zm8.772-45.483c-.172-1.617.065-4.225-2.282-4.476-3.234-.039-6.674.22-9.639 1.522-2.09 2.633-1.302 6.34-.981 9.403-1.061-.854-2.888-.64-3.405.649-.434 2.342-.105 4.739-.147 7.099-.063 5.726 1.307 11.349 1.83 17.023l.627-.02c-.118-2.506.064-5.004.041-7.504.592 1.808.92 3.716.754 5.608-.03 1.449-.243 3.126.917 4.277 1.015.847.028 2.08.006 3.123-.139.088-.404.271-.546.362.502.737.407 1.644.562 2.476-.155.014-.453.048-.602.066.21 1.602-.331 3.192-.533 4.773-.858-2.763.217-5.803-1.067-8.463.446 1.513-.175 3.051.038 4.585-.84-.293-.79-1.216-1.055-1.876-.651-2.84-2.149-5.413-3.161-8.136-1.114-1.512-1.574-3.285-2.04-5.037 4.002-5.117 3.812-11.757 3.483-17.79-.381-4.168-1.629-8.839-5.436-11.444-3.499-2.383-8.033-1.446-12.061-1.772-2.399.097-5.808-.474-7.167 1.879-.862 4.221.828 8.471.308 12.719-.415.667-1.15 1.266-1.03 2.129-.051 6.894.529 13.783 1.317 20.636.238 5.018.057 10.065.578 15.075-.66 1.318-1.044 3.074-.264 4.388 1.188.213 2.847-.392 2.678-1.739-.086-.902.702-2.089-.195-2.778.009-.587.027-1.168.048-1.74.968.214 1.951.362 2.937.478-.059.639-.125 1.273-.19 1.911.225-.065.663-.2.886-.265-.021.493-.047 1.482-.065 1.973 1.838-.858 3.296-2.263 5.126-3.141.542 1.132-.292 2.426.302 3.47.017-.501.055-1.518.067-2.024.431.478.74 1.025.948 1.629-.122-1.178.302-2.383-.117-3.527l-.407 1.754c-.764-.581-.944-1.674.112-2.072.17-4.309-.637-8.645-.372-12.962 2.101 4.703 2.581 10.315 6.34 14.27 1.099 1.04 2.472-.263 2.517-1.4 1.351 1.189 2.623 2.452 3.934 3.689-.025-.356-.072-1.059-.104-1.418l.369-.376c-1.035-2.911-1.3-6.059-1.696-9.097-.593-.732-.377-1.684-.448-2.529.271.742.52 1.503.756 2.256.914.751 1.988 1.954.633 2.876 1.235-.134 1.98 1.244 1.782 2.229.323 1.897.079 3.868.825 5.703-.774 1.72-1.291 3.628-.865 5.504.67 1.678 3.657.642 3.628-.945-.084-1.497 1.03-3.272-.188-4.539.423-4.756-.384-9.531.182-14.273.825.463 1.595 1.239 2.622.745l-.201.713.717-.096c-.213 1.168-.547 2.565.336 3.571.438.484 1.332 2.101-.056 2.014.101.228.303.676.407.898-.306.023-.914.061-1.222.084.255.037.769.127 1.023.177.171 1.3.419 2.594.627 3.902l1.24-.369c-.041-.87.533-2.098-.257-2.731.813-2.468-.223-5.283.844-7.73.943-.788 3.014.523 3.545-.971-.254 1.875.652 3.697.408 5.572-.145 1.32.126 2.63.359 3.924-.243.24-.723.709-.966.944.547.664 1.272.963 2.178.913.313-2.944-.007-5.943.549-8.879-.725-2.179.408-4.369-.167-6.542-.376-1.836.46-3.67.123-5.496-.31-1.368.263-2.723.214-4.101-.066-3.854.172-7.709.098-11.566-.127-2.912.637-5.776.687-8.687-.528-.157-1.054-.318-1.576-.48zm-29.063 17.78c-.251-2.684-1.315-5.551-.113-8.148.968-2.114 5.331-1.925 5.588.522-.237 3.174-2.562 6.079-5.475 7.626zm16.87 24.937c-.795.015-.655-1.256-.281-1.664.753 0 .669 1.26.281 1.664zm57.436-6.484c-.364-7.347.06-14.709-.26-22.053.225-3.821-1.702-7.308-2.229-11.032-.149 1.711.051 3.467-.575 5.108-.344-2.133-.457-4.287-.551-6.437l-.632.185.039-1.262.69.032c.072-1.106-.131-2.318.57-3.3-.056 1.558.078 3.108.467 4.625.12-2.103 1.888-4.519.059-6.411.878-.867 1.025-2.052.752-3.186-1.205-.068-2.432.011-3.489.602-.107.755-.233 1.518-.567 2.219.206.045.612.141.823.185a54.39 54.39 0 00-.04 6.56 22.971 22.971 0 00-2.824-.382l-.155-1.138c-1.026.106-1.486-.299-1.362-1.208.652.2 1.191-.092 1.628-.495-.143-.412-.44-1.239-.586-1.653.292.046.861.124 1.15.166-.442-.19-.881-.377-1.323-.558-.006-.856.219-1.777-.054-2.605-.469-.662-.908-1.343-1.066-2.131.175 1.019-.323 1.922-.604 2.874-.204.259-.596.781-.798 1.041a621.98 621.98 0 001.591-1.032c-.025.551-.08 1.652-.103 2.199-.357-.052-1.045-.171-1.396-.225.131 1.213.329 2.426.277 3.652-.958-.616-1.039-1.944-2.093-2.431a68.298 68.298 0 00-.062 3.263c-.785.192-1.561.395-2.339.595.179-1.597-.65-3.25.025-4.762l-.916.136-.141-.877c-1.56 1.139-.357 3.188-1.036 4.732-.019 3.482.005 6.985-.279 10.473-.537 6.465.018 12.936.004 19.403-.541 2.161-.947 4.653-.447 6.798 2.056.155.958-2.421 1.339-3.614.247 4.2-.267 8.422.099 12.622.156 1.31.602 2.765 1.88 3.495 1.635.826 3.515.309 5.259.222 4.094-.274 8.392.152 12.271-1.372 1.51-.656 1.625-2.459 1.753-3.807-.011-2.45.027-4.988-.836-7.327-.589-1.489-2.321-2.128-3.913-1.889zm-8.708-37.707c-.749-.644-.484-2.185-.381-3.122l.219.03c.38.955.502 2.118.162 3.092zm-.53-4.097l.348.042-.045.329-.344-.04.041-.331zm7.392 20.278c-.321-1.703-.929-3.399-.776-5.142.977 1.525.836 3.426.776 5.142zm13.326 35.707c1.059-1.594.735-3.798.615-5.61-.003-.002-.005-.003-.012-.003-.024.897-.15 1.807-.72 2.565-.015 1.007-.517 2.114.117 3.048zm-36.848-14.179c-.424-8.342.169-16.71-.455-25.052-.61-2.692-1.577-5.31-2.089-8.027-.045 1.728-.039 3.466-.418 5.164-.581-2.113-.499-4.307-.675-6.47l-.63.128.059-1.236.681.032c.066-1.11-.11-2.318.544-3.315-.014 1.561.097 3.12.48 4.64.138-2.103 1.898-4.519.075-6.411.882-.867 1.014-2.047.759-3.178-1.21-.083-2.446 0-3.507.603-.103.775-.27 1.551-.529 2.302.2.012.596.045.795.06a53.908 53.908 0 00-.045 6.593 22.826 22.826 0 00-2.772-.377c.332-1.549-1.941-.854-1.622-2.382.254-.005.76-.01 1.018-.012l.269-.175.187-.229a22.3 22.3 0 00-.354-1.636c.28.01.842.043 1.119.05-.336-.115-1.013-.349-1.351-.46.598-1.804-.395-3.274-1.187-4.817.111.706.228 1.411.354 2.118a11.463 11.463 0 00-1.607 1.631l.366.168.36-.695.823-.329c-.027.562-.088 1.669-.114 2.229-.346-.058-1.038-.171-1.385-.231.104 1.23.381 2.453.206 3.692-.834-.704-.992-1.982-2.03-2.461-.049 1.082-.049 2.164-.049 3.252-.787.193-1.566.396-2.34.596.128-1.593-.585-3.22-.032-4.75l-.887.117-.095-.85c-1.612 1.089-.372 3.168-1.06 4.685-.024 3.49 0 6.994-.28 10.479-.542 6.474.021 12.957.002 19.441-.539 2.15-.944 4.64-.449 6.787 2.035.147.976-2.403 1.34-3.585.253 4.181-.257 8.387.098 12.571.155 1.317.605 2.791 1.901 3.525 1.64.812 3.53.284 5.279.204 4.071-.26 8.352.151 12.212-1.363 1.523-.63 1.644-2.447 1.769-3.792-.004-2.454.033-5.004-.829-7.347-.588-1.484-2.317-2.131-3.905-1.887zm-9.003-37.818c-.235-.936-.291-2.056-.099-3.019l.222.02c.169.802.904 2.708-.123 2.999zm-.211-3.965l.354.043-.044.33-.343-.04.033-.333zm7.33 20.226c-.27-1.698-.919-3.37-.736-5.105.963 1.517.847 3.407.736 5.105zm42.392 21.938c-.468.496-1.001 1.052-.958 1.757-.074 2.002-.055 4.1-1.042 5.927.18.016.544.037.722.048.326-.773.753-1.529.888-2.366-.072-.737.779-2.026-.46-2.253.583-.948 1.197-1.979.85-3.113zm-60.383 9.915c-.114.894-.242 1.783-.341 2.684-.285.013-.871.041-1.165.046 0 .101-.005.287-.016.38.353.048 1.055.159 1.401.208.007.408.017 1.233.017 1.636l-.318-.07a187.99 187.99 0 00-.699-.977c-.175 1.593 1.026 3.52.133 4.889.371.513.525 1.084.468 1.709l.233-.104c-.033-.363-.099-1.087-.135-1.446.932-2.866.322-5.953.699-8.925l-.277-.03zm-98.439-54.315c1.219-.235.987 1.461-.044 1.538-1.248.383-.64-1.294.044-1.538zm-11.452 31.174c-.267-1.627-.033-3.28.54-4.824.183.089.551.277.733.374-.273 1.503-.592 3.041-1.273 4.45zm1.166 6.529c-.623.554-1.917-.381-1.151-1.022.797-.908 2.068.273 1.151 1.022zm33.095 12.489c.047-.759.103-1.512.158-2.301.157-2.193.319-4.462.283-6.886-.466-3.413-1.77-5.947-3.823-7.486-.877-.822-2.08-1.24-3.578-1.24-6.712 0-7.773 2.516-7.794 3.889-.511 2.313.888 3.416 1.91 4.216.482.379.988.538 1.379.632l-.005.092c-.003.099-.006.199-.017.278l-.027.199c-.192 1.398-.36 2.606-1.642 3.42l-.397.389c-.305.461-.874.948-1.09.953-.444 0-1.168-.253-1.705-.514-.792-1.049-1.025-2.032-1.127-3.175-.124-1.403-.128-2.179-.133-3.202a64.669 64.669 0 00-.033-1.841l.169-3.772c.065-1.146.23-2.556.383-3.857.073-.643.144-1.257.199-1.81.042-.408.296-1.303.501-2.03.2-.707.389-1.37.465-1.844.694-4.431 2.837-6.294 3.725-6.89.249-.171.563-.23.854-.249l.949 1.186c1.143 1.423.939 3.128.739 4.781-.064.52-.129 1.057-.15 1.582h-.261l.324 1.298c.041.273.105.537.197.794l.217.602.305-.093v.096h.672c.935 0 2.031-.704 2.659-1.167 2.226-2.039 2.287-5.121 2.339-7.842.006-.311.011-.613.02-.919l1.177-.16.209-.901c.028-.111.038-.21.063-.319.068.084.127.129.162.098.621-2.318.971-3.726.434-6.084-.103-.627-.794-.895-1.229-1.3-1.765-1.38-2.388-3.707-4.342-4.909-2.998-.664-6.112-.678-9.174-.896-4.61-.27-9.145 1.938-11.729 5.483-.04.377-.125 1.127-.169 1.505-.616-.524-1.024-1.403-1.938-1.514.476.764 1.096 1.459 1.338 2.332.941.536.089.97-.545 1.346l-.059-.072v.109a2.022 2.022 0 00-.366.256c.168.513.277 1.04.367 1.566l.002 1.796.018.193c.154 1.345.298 2.619.809 3.84l.182.434c-.36-.099-.826-.229-1.09-.298l-.106 1.226c.28-.045.773-.123 1.139-.184l-.245 1.234-.342.169-.658.603-.385 2.128h.895l-.018.108c-.263 1.433-.399 2.611-.431 3.709l-.008.302-.822-.321.573 3.658.385.322c.131.11.276.213.383.266l.098.057-.053.119a6.749 6.749 0 00-.19.734l-.517 2.176.822-.104v.1c0 .416-.077.838-.236 1.296l-.658 1.904.937-.056.002.101c.017.617-.037 1.236-.091 1.884-.098 1.102-.21 2.35.183 3.532.133.641.253 1.299.376 1.97l.048.253c.709 3.897 1.44 7.928 4.577 10.742 1.326 1.242 3.298 1.954 5.406 1.954 3.05 0 6.668-1.57 7.402-5.013l.047-.22.122.194c1.553 2.435 4.285 4.416 7.746 5.591.35.1 1.083.308 1.713.308h1.273l.1-1.242c.131-1.61.015-3.189-.113-4.924-.106-1.43-.214-2.915-.139-4.37zm-13.392-42.506c.407-.589.955-.737 1.528-.668.373.09.775.256 1.202.513l-.203.425a25.5 25.5 0 00-2.527-.27zm-3.548-2.694a.675.675 0 01.472-.042l.159.275c.044.077.07.158.078.25.013.134-.038.359-.387.532-.885.333-1.477-.955-.322-1.015zm-1.244 1.202l-.381.696c-.249.458-.573.851-.97 1.338-.418.508-.85 1.038-1.089 1.665-.53 1.526-2.044 2.235-3.523 2.909.553-2.322 2.097-4.32 3.951-5.906.511-.548 1.265-.687 2.012-.702zm-9.027 4.831c2.564-1.704 2.772-6.15 6.508-6.26-.988 1.625-2.239 3.099-3.473 4.565-1.231 1.404-1.67 3.233-2.872 4.652-.38-.452-.768-.902-1.163-1.349.783-.245 1.735-.81 1-1.608z" fill="#fff"/></svg>