<svg width="87" height="97" viewBox="0 0 87 97" fill="none" xmlns="http://www.w3.org/2000/svg"><path fill-rule="evenodd" clip-rule="evenodd" d="M3.518.05c0 .027-.12.049-.266.049-.147 0-.267.022-.267.05 0 .027-.072.049-.16.049-.088 0-.16.022-.16.05 0 .027-.072.049-.16.049-.087 0-.16.022-.16.05 0 .027-.047.049-.106.049s-.107.022-.107.05c0 .027-.042.049-.094.049-.053 0-.13.044-.172.099-.042.054-.108.099-.146.099-.09 0-.867.721-.867.805 0 .035-.048.096-.107.135-.058.04-.106.111-.106.16 0 .048-.024.088-.054.088-.029 0-.053.044-.053.099 0 .054-.024.099-.053.099-.03 0-.054.044-.054.099 0 .054-.024.099-.053.099-.03 0-.053.066-.053.148 0 .082-.024.148-.053.148-.03 0-.054.067-.054.149 0 .082-.024.148-.053.148-.03 0-.053.112-.053.248s-.024.247-.054.247C.018 3.365 0 15.755 0 40.433c0 24.68.018 37.068.053 37.068.03 0 .054.09.054.198 0 .109.024.198.053.198.03 0 .053.089.053.198 0 .109.024.198.054.198.029 0 .053.044.053.099 0 .054.024.099.053.099.03 0 .053.062.053.137 0 .081.045.167.107.21.059.038.107.11.107.159 0 .048.024.088.053.088.03 0 .053.035.053.079 0 .043.072.141.16.218.088.076.16.163.16.194 0 .073.352.4.43.4.033 0 .128.066.21.148.082.082.188.148.234.148.047 0 .086.023.086.05 0 .027.048.05.106.05.059 0 .107.022.107.049 0 .027.048.05.107.05.058 0 .106.022.106.049 0 .027.072.05.16.05.088 0 .16.022.16.049 0 .027.096.05.213.05.118 0 .214.022.214.049 0 .028.16.05.373.05s.373.02.373.049c0 .032.817.05 2.345.05h2.346v-4.06H4.371V4.058H65.25v1.959c0 1.63.013 1.97.076 2.029.064.059.429.07 2.186.07h2.11V5.84c0-1.485-.02-2.277-.054-2.277-.03 0-.053-.132-.053-.297 0-.165-.024-.297-.054-.297-.029 0-.053-.066-.053-.148 0-.082-.024-.149-.053-.149-.03 0-.053-.066-.053-.148 0-.082-.025-.148-.054-.148-.03 0-.053-.045-.053-.1 0-.054-.024-.098-.053-.098-.03 0-.054-.045-.054-.1 0-.054-.024-.098-.053-.098-.03 0-.053-.045-.053-.1 0-.054-.024-.098-.054-.098-.029 0-.053-.036-.053-.08 0-.043-.072-.141-.16-.217-.088-.077-.16-.164-.16-.195 0-.077-.461-.498-.546-.498-.039 0-.105-.045-.147-.1-.042-.054-.114-.098-.16-.098s-.117-.045-.16-.1a.3.3 0 00-.225-.098c-.081 0-.148-.022-.148-.05 0-.027-.048-.05-.106-.05-.06 0-.107-.021-.107-.049 0-.027-.072-.049-.16-.049-.088 0-.16-.022-.16-.05 0-.027-.12-.049-.266-.049-.147 0-.267-.022-.267-.05C66.103.017 55.637 0 34.81 0S3.518.017 3.518.05zm12.794 12.174c0 .027-.096.05-.213.05-.117 0-.213.022-.213.049 0 .027-.072.05-.16.05-.088 0-.16.022-.16.049 0 .027-.048.05-.106.05-.06 0-.107.022-.107.049 0 .027-.048.05-.107.05-.058 0-.106.022-.106.049 0 .027-.043.05-.095.05-.052 0-.13.044-.172.098-.042.055-.108.1-.146.1-.09 0-.76.621-.76.705 0 .035-.048.096-.107.136-.058.039-.106.11-.106.16 0 .047-.024.087-.054.087-.029 0-.053.045-.053.1 0 .054-.024.098-.053.098-.03 0-.054.045-.054.1 0 .053-.023.098-.053.098s-.053.045-.053.099c0 .054-.024.099-.053.099-.03 0-.054.067-.054.148 0 .082-.024.149-.053.149-.03 0-.053.089-.053.198 0 .109-.024.198-.054.198s-.053.132-.053.297c0 .165-.024.297-.053.297-.036 0-.054 12.95-.054 38.75s.018 38.75.054 38.75c.03 0 .053.133.053.298 0 .165.024.297.053.297.03 0 .054.089.054.198 0 .109.024.198.053.198.03 0 .053.044.053.099 0 .054.024.098.053.098.03 0 .054.067.054.149 0 .082.024.148.053.148.03 0 .053.045.053.1 0 .054.024.098.054.098s.053.04.053.089c0 .048.048.12.107.159.058.04.106.102.106.14 0 .037.072.13.16.206.088.077.16.164.16.196 0 .073.244.3.323.3.033 0 .128.066.21.148.082.081.188.148.235.148.047 0 .085.022.085.05 0 .027.048.05.107.05.058 0 .106.021.106.049 0 .027.048.05.107.05s.107.021.107.049c0 .027.047.05.106.05s.107.021.107.049c0 .027.096.049.213.049.117 0 .213.022.213.05 0 .027.12.049.267.049.146 0 .266.022.266.05 0 .032 6.69.049 19.964.049h19.965l15.22-14.13L87 68.742v-26.65c0-17.734-.018-26.65-.053-26.65-.03 0-.054-.09-.054-.198 0-.109-.024-.198-.053-.198-.03 0-.053-.09-.053-.198 0-.109-.024-.198-.053-.198-.03 0-.054-.045-.054-.099 0-.054-.024-.099-.053-.099-.03 0-.053-.045-.053-.099 0-.054-.025-.099-.054-.099-.03 0-.053-.044-.053-.099 0-.054-.024-.099-.053-.099-.03 0-.054-.044-.054-.099 0-.054-.024-.099-.053-.099-.03 0-.053-.035-.053-.079 0-.043-.072-.142-.16-.218-.088-.076-.16-.164-.16-.194 0-.078-.354-.4-.44-.4-.038 0-.104-.044-.147-.099-.042-.054-.114-.099-.16-.099-.045 0-.117-.044-.16-.099-.042-.054-.119-.099-.171-.099-.052 0-.095-.022-.095-.05 0-.026-.048-.049-.107-.049-.058 0-.106-.022-.106-.05 0-.026-.072-.049-.16-.049-.088 0-.16-.022-.16-.049 0-.027-.096-.05-.213-.05-.118 0-.213-.022-.213-.049 0-.033-11.284-.05-33.745-.05-22.46 0-33.745.017-33.745.05zm66.317 28.16v24.25h-13.22c-8.78 0-13.222.016-13.222.05 0 .027-.16.049-.373.049s-.373.02-.373.05c0 .026-.096.049-.213.049-.117 0-.213.022-.213.05 0 .026-.072.049-.16.049-.088 0-.16.022-.16.05 0 .026-.048.049-.107.049-.058 0-.106.022-.106.05 0 .026-.048.049-.107.049s-.107.022-.107.05c0 .026-.042.049-.095.049-.052 0-.129.044-.171.099-.042.054-.108.099-.146.099-.09 0-.654.522-.654.606 0 .035-.048.097-.106.136-.06.04-.107.106-.107.148 0 .043-.048.11-.107.149-.058.039-.106.11-.106.16 0 .048-.024.087-.054.087-.029 0-.053.045-.053.1 0 .054-.024.098-.053.098-.03 0-.053.067-.053.149 0 .081-.025.148-.054.148-.03 0-.053.067-.053.149 0 .081-.024.148-.053.148-.03 0-.054.09-.054.198 0 .109-.024.198-.053.198-.035 0-.053 4.207-.053 12.52v12.522H17.379V16.134h65.25v24.25zM26.12 30.337v2.03h47.872v-4.06H26.12v2.03zm0 12.076v2.029h47.872v-4.058H26.12v2.029zm0 12.174v2.03h47.872v-4.06H26.12v2.03zm56.508 14.13c0 .032-25.954 24.126-25.988 24.126-.015 0-.027-5.434-.027-12.076V68.692H69.62c7.154 0 13.008.011 13.008.025z" fill="#C12736"/></svg>