<svg width="119" height="44" viewBox="0 0 119 44" xmlns="http://www.w3.org/2000/svg" xmlns:xlink="http://www.w3.org/1999/xlink"><g id="Page-1" stroke="none" stroke-width="1" fill="none" fill-rule="evenodd"><g id="news_tracker" transform="translate(-132 -78)"><g id="Page-1" transform="translate(132 78)"><path id="Fill-1" fill="red" d="M17.125 20.183l-5.664-9.366L0 44l12.5-20.1 5.68 9.387L29.548 0z"/><path id="Fill-2" fill="#000" d="M44.129 19.484h-2.132l-7.896-8.94v8.94h-1.714V8.58h2.129l7.899 8.945V8.581h1.714z"/><path id="Fill-3" fill="#000" d="M57.548 19.484H46.645V8.58h10.5v1.626h-8.774v2.802h6.099v1.625h-6.1v3.223h9.177z"/><path id="Fill-4" fill="#000" d="M74.323 8.58l-3.47 10.904H68.58l-2.643-9.105-2.644 9.105h-2.245l-3.5-10.904h1.958l2.667 9.13 2.65-9.13h2.225l2.655 9.146 2.663-9.146z"/><path d="M85.96 11.282c-1.635-.785-3.3-1.178-4.996-1.178-1.127 0-1.99.124-2.59.373-.598.25-.898.594-.898 1.034 0 .46.32.795.96 1.006.457.153 1.203.259 2.239.316 1.523.095 2.528.172 3.015.23 1.381.172 2.402.493 3.062.962.66.47.99 1.135.99 1.997 0 1.102-.518 1.954-1.554 2.557-1.035.604-2.523.905-4.463.905-2.812 0-5-.584-6.564-1.752l1.005-1.25a10.966 10.966 0 005.575 1.494c1.29 0 2.29-.167 3-.503.68-.325 1.021-.77 1.021-1.336 0-.661-.447-1.101-1.34-1.321-.468-.115-1.727-.235-3.778-.36-1.818-.114-3.091-.345-3.823-.69-.853-.401-1.28-1.077-1.28-2.025 0-.977.486-1.748 1.455-2.313.97-.565 2.338-.847 4.105-.847 2.376 0 4.366.513 5.97 1.537l-1.111 1.164z" id="Fill-5" fill="#000"/><path id="Fill-7" fill="#000" d="M39.097 26.143h-5.003v9.276h-1.736v-9.276h-5.003v-1.627h11.742z"/><path d="M47.844 29.636c1.325 0 1.988-.561 1.988-1.686 0-1.205-.715-1.807-2.144-1.807h-6.036v3.493h6.192zm3.833 5.783h-1.996l-2.802-4.156h-5.227v4.156h-1.717V24.516h8.168c1.086 0 1.94.31 2.559.926.62.618.93 1.454.93 2.508 0 .923-.253 1.666-.758 2.229-.468.522-1.112.853-1.932.993l2.775 4.247z" id="Fill-9" fill="#000"/><path d="M62.78 31.353l-2.7-5.283-2.732 5.283h5.43zm3.994 4.066h-1.92l-1.221-2.44h-7.137l-1.22 2.44h-1.921l5.604-10.903h2.21l5.605 10.903z" id="Fill-11" fill="#000"/><path d="M79.355 26.555l-1.66.598c-1.117-1.194-2.681-1.792-4.691-1.792-1.524 0-2.765.394-3.725 1.18-.96.785-1.439 1.785-1.439 3 0 1.255.474 2.268 1.424 3.04.95.77 2.232 1.154 3.846 1.154 1.95 0 3.483-.606 4.6-1.821l1.569.872c-.792.93-1.689 1.6-2.688 2.013-1.001.414-2.196.62-3.587.62-1.95 0-3.57-.49-4.86-1.469-1.472-1.122-2.209-2.592-2.209-4.409 0-1.786.747-3.246 2.24-4.378 1.3-.99 2.909-1.486 4.829-1.486 2.761 0 4.879.96 6.35 2.878" id="Fill-13" fill="#000"/><path id="Fill-15" fill="#000" d="M93.613 35.42h-2.31l-5.192-5.73-3.281 2.422v3.307h-1.798V24.516h1.798v5.648l7.592-5.648h2.595l-5.546 4.125z"/><path id="Fill-17" fill="#000" d="M105.355 35.42H94.452V24.515h10.5v1.627h-8.774v2.801h6.098v1.626h-6.098v3.223h9.177z"/><path d="M114.941 29.636c1.325 0 1.988-.561 1.988-1.686 0-1.205-.715-1.807-2.145-1.807h-6.035v3.493h6.192zm3.833 5.783h-1.997l-2.802-4.156h-5.226v4.156h-1.717V24.516h8.167c1.086 0 1.94.31 2.56.926.62.618.93 1.454.93 2.508 0 .923-.253 1.666-.759 2.229-.467.522-1.11.853-1.93.993l2.774 4.247z" id="Fill-19" fill="#000"/></g></g></g></svg>