<svg width="114" height="106" viewBox="0 0 114 106" fill="none" xmlns="http://www.w3.org/2000/svg"><path fill-rule="evenodd" clip-rule="evenodd" d="M94.034.112a.51.51 0 00-.097.291c0 .1-.07.231-.155.293a.425.425 0 00-.156.329c0 .118-.035.216-.078.216-.042 0-.077.07-.077.155 0 .086-.035.156-.078.156s-.078.07-.078.156c0 .085-.035.155-.078.155-.042 0-.077.07-.077.156s-.035.156-.078.156-.078.07-.078.155c0 .086-.035.156-.078.156-.042 0-.077.07-.077.156 0 .085-.035.155-.078.155s-.078.07-.078.156-.035.156-.078.156c-.042 0-.078.07-.078.155 0 .086-.035.156-.077.156-.043 0-.078.07-.078.156 0 .085-.035.155-.078.155s-.078.07-.078.156-.034.156-.077.156-.078.07-.078.155c0 .086-.035.156-.078.156s-.078.07-.078.156c0 .085-.035.155-.077.155-.043 0-.078.07-.078.156s-.035.156-.078.156-.078.07-.078.155c0 .086-.035.156-.077.156-.043 0-.078.07-.078.156 0 .085-.035.155-.078.155s-.078.07-.078.156-.035.156-.077.156c-.043 0-.078.07-.078.155 0 .086-.035.156-.078.156s-.078.07-.078.156c0 .085-.035.155-.078.155-.042 0-.077.07-.077.156s-.035.156-.078.156-.078.07-.078.155c0 .086-.035.156-.078.156-.042 0-.077.07-.077.156 0 .085-.035.155-.078.155s-.078.07-.078.156c0 .085-.035.156-.078.156-.042 0-.077.07-.077.155 0 .086-.035.156-.078.156s-.078.07-.078.156c0 .085-.035.155-.078.155-.042 0-.077.07-.077.156 0 .085-.035.155-.078.155s-.078.07-.078.156-.035.156-.078.156c-.042 0-.078.07-.078.155 0 .086-.034.156-.077.156s-.078.07-.078.156c0 .085-.035.155-.078.155s-.078.07-.078.156-.034.156-.077.156-.078.07-.078.155c0 .086-.035.156-.078.156s-.078.07-.078.156c0 .085-.035.155-.077.155-.043 0-.078.07-.078.156s-.035.156-.078.156-.078.07-.078.155c0 .086-.035.156-.077.156-.043 0-.078.07-.078.156 0 .085-.035.155-.078.155s-.078.106-.078.234-.035.233-.077.233c-.043 0-.078.07-.078.156s-.035.156-.078.156-.078.07-.078.155c0 .086-.035.156-.078.156-.042 0-.077.07-.077.156 0 .085-.035.155-.078.155s-.078.07-.078.156-.035.156-.078.156c-.042 0-.077.07-.077.155 0 .086-.035.156-.078.156s-.078.07-.078.156c0 .085-.035.155-.078.155-.042 0-.077.07-.077.156s-.035.156-.078.156-.078.07-.078.155c0 .086-.035.156-.078.156-.042 0-.077.07-.077.156 0 .085-.035.155-.078.155s-.078.07-.078.156c0 .085-.035.156-.078.156-.042 0-.077.07-.077.155 0 .086-.035.156-.078.156s-.078.07-.078.155c0 .086-.035.156-.078.156s-.078.07-.078.156-.035.156-.077.156c-.043 0-.078.07-.078.155 0 .086-.035.156-.078.156s-.078.07-.078.155c0 .086-.034.156-.077.156s-.078.07-.078.156c0 .085-.035.155-.078.155s-.078.07-.078.156-.035.156-.077.156c-.043 0-.078.07-.078.155 0 .086-.035.156-.078.156s-.078.07-.078.156c0 .085-.035.155-.077.155-.043 0-.078.07-.078.156s-.035.156-.078.156-.078.07-.078.155c0 .086-.035.156-.078.156-.042 0-.077.07-.077.156 0 .085-.035.155-.078.155s-.078.07-.078.156-.035.156-.078.156c-.042 0-.077.07-.077.155 0 .086-.035.156-.078.156s-.078.07-.078.156c0 .085-.035.155-.078.155-.042 0-.077.07-.077.156s-.035.156-.078.156-.078.07-.078.155c0 .086-.035.156-.078.156-.042 0-.077.07-.077.156 0 .085-.035.155-.078.155s-.078.07-.078.156-.035.156-.078.156c-.042 0-.077.07-.077.155 0 .086-.035.156-.078.156s-.078.07-.078.156c0 .085-.035.155-.078.155-.042 0-.077.07-.077.156s-.035.156-.078.156-.078.105-.078.233-.035.234-.078.234-.078.07-.078.155c0 .086-.034.156-.077.156s-.078.07-.078.156c0 .085-.035.155-.078.155s-.078.07-.078.156c0 .085-.035.155-.077.155-.043 0-.078.07-.078.156s-.035.156-.078.156-.078.07-.078.155c0 .086-.035.156-.077.156-.043 0-.078.07-.078.156 0 .085-.035.155-.078.155s-.078.07-.078.156-.035.156-.077.156c-.043 0-.078.07-.078.155 0 .086-.035.156-.078.156s-.078.07-.078.156c0 .085-.035.155-.078.155-.042 0-.077.07-.077.156s-.035.156-.078.156-.078.07-.078.155c0 .086-.035.156-.078.156-.042 0-.077.07-.077.156 0 .085-.035.155-.078.155s-.078.07-.078.156-.035.156-.078.156c-.042 0-.077.07-.077.155 0 .086-.035.156-.078.156s-.078.07-.078.156c0 .085-.035.155-.078.155-.042 0-.077.07-.077.156s-.035.156-.078.156-.078.07-.078.155c0 .086-.035.156-.078.156-.042 0-.078.07-.078.156 0 .085-.034.155-.077.155s-.078.07-.078.156-.035.156-.078.156-.078.07-.078.155c0 .086-.034.156-.077.156s-.078.07-.078.156c0 .085-.035.155-.078.155s-.078.07-.078.156-.035.156-.077.156c-.043 0-.078.07-.078.155 0 .086-.035.156-.078.156s-.078.07-.078.156c0 .085-.035.155-.077.155-.043 0-.078.07-.078.156 0 .085-.035.156-.078.156s-.078.07-.078.155c0 .086-.035.156-.077.156-.043 0-.078.07-.078.156 0 .085-.035.155-.078.155s-.078.07-.078.156c0 .085-.035.155-.078.155-.042 0-.077.07-.077.156s-.035.156-.078.156-.078.07-.078.155c0 .086-.035.156-.078.156-.042 0-.077.07-.077.156 0 .085-.035.156-.078.156s-.078.07-.078.155c0 .086-.035.156-.078.156-.042 0-.077.07-.077.156 0 .085-.035.155-.078.155s-.078.105-.078.234c0 .128-.035.233-.078.233-.042 0-.077.07-.077.156 0 .085-.035.155-.078.155s-.078.063-.078.139c0 .076-.07.189-.155.25a.425.425 0 00-.156.33c0 .118-.035.215-.078.215s-.078.07-.078.156-.034.156-.077.156-.078.07-.078.155c0 .086-.035.156-.078.156-.042 0-.078.07-.078.156 0 .085-.034.155-.077.155s-.078.07-.078.156-.035.156-.078.156-.078.07-.078.155c0 .086-.035.156-.077.156-.043 0-.078.07-.078.156 0 .085-.035.155-.078.155s-.078.07-.078.156-.035.156-.077.156c-.043 0-.078.07-.078.155 0 .086-.035.156-.078.156s-.078.07-.078.156c0 .085-.035.155-.077.155-.043 0-.078.07-.078.156s-.035.156-.078.156-.078.07-.078.155c0 .086-.035.156-.078.156-.042 0-.077.07-.077.156 0 .085-.035.155-.078.155s-.078.07-.078.156-.035.156-.078.156c-.042 0-.077.07-.077.155 0 .086-.035.156-.078.156s-.078.07-.078.155c0 .086-.035.156-.078.156-.042 0-.077.07-.077.156 0 .085-.035.155-.078.155s-.078.07-.078.156-.035.156-.078.156c-.042 0-.077.07-.077.155 0 .086-.035.156-.078.156s-.078.07-.078.156c0 .085-.035.156-.078.156s-.078.07-.078.155c0 .086-.035.156-.077.156-.043 0-.078.07-.078.156 0 .085-.035.155-.078.155s-.078.07-.078.156c0 .085-.034.155-.077.155s-.078.07-.078.156-.035.156-.078.156-.078.07-.078.155c0 .086-.035.156-.077.156-.043 0-.078.07-.078.156 0 .085-.035.155-.078.155s-.078.07-.078.156-.035.156-.077.156c-.043 0-.078.07-.078.155 0 .086-.035.156-.078.156s-.078.07-.078.156c0 .085-.035.155-.077.155-.043 0-.078.07-.078.156s-.035.156-.078.156-.078.105-.078.233c0 .129-.035.234-.078.234-.042 0-.077.07-.077.155 0 .086-.035.156-.078.156s-.078.07-.078.156c0 .085-.035.155-.078.155-.042 0-.077.07-.077.156s-.035.156-.078.156-.078.07-.078.155c0 .086-.035.156-.078.156-.042 0-.077.07-.077.156 0 .085-.035.155-.078.155s-.078.07-.078.156-.035.156-.078.156c-.042 0-.077.07-.077.155 0 .086-.035.156-.078.156s-.078.07-.078.156c0 .085-.035.155-.078.155s-.077.07-.077.156-.035.156-.078.156-.078.07-.078.155c0 .086-.035.156-.078.156s-.078.07-.078.155c0 .086-.034.156-.077.156s-.078.07-.078.156c0 .085-.035.155-.078.155s-.078.07-.078.156-.035.156-.077.156c-.043 0-.078.07-.078.155 0 .086-.035.156-.078.156s-.078.07-.078.156c0 .085-.035.156-.077.156-.043 0-.078.07-.078.155 0 .086-.035.156-.078.156s-.078.07-.078.155c0 .086-.035.156-.077.156-.043 0-.078.07-.078.156 0 .085-.035.155-.078.155s-.078.07-.078.156-.035.156-.078.156c-.042 0-.077.07-.077.155 0 .086-.035.156-.078.156s-.078.07-.078.156c0 .085-.035.155-.078.155-.042 0-.077.07-.077.156s-.035.156-.078.156-.078.07-.078.155c0 .086-.035.156-.078.156-.042 0-.077.07-.077.156 0 .085-.035.155-.078.155s-.078.07-.078.156-.035.156-.078.156c-.042 0-.077.07-.077.155 0 .086-.035.156-.078.156s-.078.07-.078.156c0 .085-.035.155-.078.155-.042 0-.077.07-.077.156s-.035.156-.078.156-.078.07-.078.155c0 .086-.035.156-.078.156s-.078.07-.078.156c0 .085-.034.155-.077.155s-.078.07-.078.156c0 .085-.035.156-.078.156-.042 0-.078.07-.078.155 0 .086-.035.156-.077.156-.043 0-.078.07-.078.156 0 .085-.035.155-.078.155s-.078.07-.078.156-.035.156-.077.156c-.043 0-.078.07-.078.155 0 .086-.035.156-.078.156s-.078.105-.078.233c0 .129-.035.234-.077.234-.043 0-.078.07-.078.155 0 .086-.035.156-.078.156s-.078.07-.078.156c0 .085-.035.155-.077.155-.043 0-.078.07-.078.156s-.035.156-.078.156-.078.07-.078.155c0 .086-.035.156-.078.156-.042 0-.077.07-.077.156 0 .085-.035.155-.078.155s-.078.07-.078.156-.035.156-.078.156c-.042 0-.077.07-.077.155 0 .086-.035.156-.078.156s-.078.07-.078.156c0 .085-.035.155-.078.155-.042 0-.077.07-.077.156s-.035.156-.078.156-.078.07-.078.155c0 .086-.035.156-.078.156-.042 0-.077.07-.077.156 0 .085-.035.155-.078.155s-.078.07-.078.156-.035.156-.078.156-.077.07-.077.155c0 .086-.035.156-.078.156s-.078.105-.078.233c0 .129-.035.234-.078.234-.045 0-.078.26-.078.623s-.032.622-.077.622c-.047 0-.078.312-.078.779s-.031.778-.078.778c-.046 0-.078.311-.078.778s-.03.779-.077.779-.078.337-.078.856c0 .519-.03.856-.078.856-.046 0-.078.311-.078.778s-.03.778-.077.778c-.048 0-.078.364-.078.934 0 .571-.03.934-.078.934-.047 0-.078.338-.078.856 0 .52-.03.856-.077.856s-.078.338-.078.857c0 .519-.03.856-.078.856-.047 0-.078.337-.078.856 0 .519-.03.856-.078.856-.047 0-.077.363-.077.934 0 .57-.03.934-.078.934-.047 0-.078.363-.078.934 0 .57-.03.934-.078.934-.047 0-.077.337-.077.856 0 .519-.03.856-.078.856s-.078.363-.078.934c0 .57-.03.934-.078.934-.047 0-.077.363-.077.934 0 .57-.03.934-.078.934s-.078.363-.078.934c0 .57-.03.934-.078.934-.047 0-.077.337-.077.856 0 .519-.031.856-.078.856-.048 0-.078.377-.078.976 0 .933.009.985.191 1.168.188.188.587.265.587.113 0-.043.054-.078.12-.078s.397-.28.735-.622c.339-.343.653-.623.7-.623.046 0 .396-.315.778-.7.381-.386.731-.7.777-.7.046 0 .396-.316.778-.701.381-.386.731-.7.777-.7.045 0 .5-.421 1.011-.935.511-.513.966-.934 1.011-.934.046 0 .466-.385.934-.856.467-.47.887-.856.933-.856.045 0 .465-.385.933-.856s.887-.856.933-.856c.045 0 .465-.385.933-.856s.888-.856.933-.856c.045 0 .5-.42 1.011-.934.51-.514.966-.934 1.01-.934.046 0 .536-.456 1.09-1.012.553-.557 1.043-1.012 1.089-1.012.045 0 .465-.385.932-.856.468-.471.888-.856.933-.856.045 0 .605-.526 1.245-1.168.64-.642 1.216-1.167 1.281-1.167.067 0 .119-.068.119-.156 0-.103.052-.155.155-.155.104 0 .156-.052.156-.156 0-.09.052-.156.122-.156.157 0 .344-.187.344-.344 0-.068.035-.123.078-.123s.078-.07.078-.155c0-.086.035-.156.078-.156.042 0 .077-.07.077-.156 0-.085.035-.155.078-.155s.078-.07.078-.156.035-.156.078-.156c.042 0 .077-.07.077-.155 0-.086.035-.156.078-.156s.078-.07.078-.156c0-.085.035-.155.078-.155.042 0 .077-.07.077-.156s.035-.156.078-.156.078-.07.078-.155c0-.086.035-.156.078-.156s.078-.07.078-.156c0-.085.034-.155.077-.155s.078-.07.078-.156.035-.156.078-.156c.042 0 .078-.07.078-.155 0-.086.035-.156.077-.156.043 0 .078-.07.078-.156 0-.085.035-.155.078-.155s.078-.07.078-.156.035-.156.077-.156c.043 0 .078-.07.078-.155 0-.086.035-.156.078-.156s.078-.07.078-.156c0-.085.035-.155.077-.155.043 0 .078-.07.078-.156 0-.085.035-.156.078-.156s.078-.07.078-.155c0-.086.035-.156.077-.156.043 0 .078-.07.078-.156 0-.085.035-.155.078-.155s.078-.07.078-.156.035-.156.077-.156c.043 0 .078-.07.078-.155 0-.086.035-.156.078-.156s.078-.07.078-.155c0-.086.035-.156.078-.156.042 0 .077-.07.077-.156 0-.085.035-.155.078-.155s.078-.07.078-.156.035-.156.078-.156c.042 0 .077-.105.077-.233 0-.129.035-.234.078-.234s.078-.07.078-.155c0-.086.035-.156.078-.156.042 0 .077-.07.077-.156 0-.085.035-.155.078-.155s.078-.07.078-.156.035-.156.078-.156c.042 0 .077-.07.077-.155 0-.086.035-.156.078-.156s.078-.07.078-.156c0-.085.035-.155.078-.155s.078-.07.078-.156.034-.156.077-.156.078-.07.078-.155c0-.086.035-.156.078-.156s.078-.07.078-.156c0-.085.035-.155.077-.155.043 0 .078-.07.078-.156s.035-.156.078-.156.078-.07.078-.155c0-.086.035-.156.077-.156.043 0 .078-.07.078-.156 0-.085.035-.155.078-.155s.078-.07.078-.156.035-.156.077-.156c.043 0 .078-.07.078-.155 0-.086.035-.156.078-.156s.078-.07.078-.156c0-.085.035-.155.078-.155.042 0 .077-.07.077-.156 0-.085.035-.156.078-.156s.078-.07.078-.155c0-.086.035-.156.078-.156.042 0 .077-.07.077-.156 0-.085.035-.155.078-.155s.078-.07.078-.156.035-.156.078-.156c.042 0 .077-.07.077-.155 0-.086.035-.156.078-.156s.078-.07.078-.156c0-.085.035-.155.078-.155.042 0 .077-.07.077-.156s.035-.156.078-.156.078-.07.078-.155c0-.086.035-.156.078-.156.042 0 .077-.07.077-.155 0-.086.035-.156.078-.156s.078-.07.078-.156c0-.085.035-.155.078-.155s.078-.07.078-.156.034-.156.077-.156.078-.07.078-.155c0-.086.035-.156.078-.156s.078-.07.078-.156c0-.085.035-.155.077-.155.043 0 .078-.07.078-.156s.035-.156.078-.156.078-.07.078-.155c0-.086.035-.156.077-.156.043 0 .078-.07.078-.156 0-.085.035-.155.078-.155s.078-.07.078-.156.035-.156.077-.156c.043 0 .078-.07.078-.155 0-.086.035-.156.078-.156s.078-.07.078-.156c0-.085.035-.155.077-.155.043 0 .078-.07.078-.156s.035-.156.078-.156.078-.105.078-.233c0-.129.035-.234.078-.234.042 0 .077-.07.077-.155 0-.086.035-.156.078-.156s.078-.07.078-.156c0-.085.035-.155.078-.155.042 0 .077-.07.077-.156s.035-.156.078-.156.078-.07.078-.155c0-.086.035-.156.078-.156.042 0 .077-.07.077-.156 0-.085.035-.155.078-.155s.078-.07.078-.156c0-.085.035-.156.078-.156.042 0 .077-.07.077-.155 0-.086.035-.156.078-.156s.078-.07.078-.155c0-.086.035-.156.078-.156s.077-.07.077-.156.035-.156.078-.156.078-.07.078-.155c0-.086.035-.156.078-.156.042 0 .078-.07.078-.156 0-.085.035-.155.077-.155.043 0 .078-.07.078-.156 0-.085.035-.156.078-.156s.078-.07.078-.155c0-.086.034-.156.077-.156s.078-.07.078-.155c0-.086.035-.156.078-.156s.078-.07.078-.156c0-.085.035-.155.077-.155.043 0 .078-.07.078-.156s.035-.156.078-.156.078-.07.078-.155c0-.086.035-.156.077-.156.043 0 .078-.07.078-.156 0-.085.035-.155.078-.155s.078-.07.078-.156.035-.156.078-.156c.042 0 .077-.07.077-.155 0-.086.035-.156.078-.156s.078-.07.078-.156c0-.085.035-.155.078-.155.042 0 .077-.07.077-.156s.035-.156.078-.156.078-.07.078-.155c0-.086.035-.156.078-.156.042 0 .077-.07.077-.156 0-.085.035-.155.078-.155s.078-.07.078-.156.035-.156.078-.156c.042 0 .077-.07.077-.155 0-.086.035-.156.078-.156s.078-.07.078-.156c0-.085.035-.155.078-.155.042 0 .077-.07.077-.156s.035-.156.078-.156.078-.07.078-.155c0-.086.035-.156.078-.156.042 0 .078-.07.078-.156 0-.085.035-.155.077-.155.043 0 .078-.07.078-.156s.035-.156.078-.156.078-.07.078-.155c0-.086.034-.156.077-.156s.078-.07.078-.155c0-.086.035-.156.078-.156s.078-.105.078-.234c0-.128.035-.233.077-.233.043 0 .078-.07.078-.156s.035-.156.078-.156.078-.07.078-.155c0-.086.035-.156.077-.156.043 0 .078-.07.078-.156 0-.085.035-.155.078-.155s.078-.07.078-.156c0-.085.035-.156.077-.156.043 0 .078-.07.078-.155 0-.086.035-.156.078-.156s.078-.07.078-.155c0-.086.035-.156.077-.156.043 0 .078-.07.078-.156 0-.085.035-.155.078-.155s.078-.07.078-.156.035-.156.078-.156c.042 0 .077-.07.077-.155 0-.086.035-.156.078-.156s.078-.07.078-.156c0-.085.035-.155.078-.155.042 0 .077-.07.077-.156s.035-.156.078-.156.078-.07.078-.155c0-.086.035-.156.078-.156.042 0 .077-.07.077-.156 0-.085.035-.155.078-.155s.078-.07.078-.156.035-.156.078-.156c.042 0 .077-.07.077-.155 0-.086.035-.156.078-.156s.078-.07.078-.156c0-.085.035-.155.078-.155s.078-.07.078-.156.034-.156.077-.156.078-.07.078-.155c0-.086.035-.156.078-.156s.078-.07.078-.156c0-.085.035-.155.077-.155.043 0 .078-.07.078-.156s.035-.156.078-.156.078-.07.078-.155c0-.086.035-.156.077-.156.043 0 .078-.07.078-.156 0-.085.035-.155.078-.155s.078-.07.078-.156.035-.156.077-.156c.043 0 .078-.07.078-.155 0-.086.035-.156.078-.156s.078-.07.078-.155c0-.086.035-.156.077-.156.043 0 .078-.07.078-.156 0-.085.035-.155.078-.155s.078-.07.078-.156.035-.156.078-.156c.042 0 .077-.07.077-.155 0-.086.035-.156.078-.156s.078-.07.078-.156c0-.085.035-.155.078-.155.042 0 .077-.07.077-.156s.035-.156.078-.156.078-.07.078-.155c0-.086.035-.156.078-.156.042 0 .077-.07.077-.156 0-.085.035-.155.078-.155s.078-.07.078-.156.035-.156.078-.156c.042 0 .077-.105.077-.233 0-.129.035-.234.078-.234s.078-.07.078-.155c0-.086.035-.156.078-.156.042 0 .077-.07.077-.156 0-.085.035-.155.078-.155s.078-.07.078-.156.035-.156.078-.156.078-.07.078-.155c0-.086.035-.156.077-.156.043 0 .078-.07.078-.156 0-.085.035-.155.078-.155s.078-.07.078-.156.035-.156.077-.156c.043 0 .078-.07.078-.155 0-.086.035-.156.078-.156s.078-.07.078-.156c0-.085.035-.155.077-.155.043 0 .078-.07.078-.156s.035-.156.078-.156.078-.07.078-.155c0-.086.035-.156.077-.156.043 0 .078-.07.078-.156 0-.085.035-.155.078-.155s.078-.07.078-.156c0-.085.035-.156.077-.156.043 0 .078-.07.078-.155 0-.086.035-.156.078-.156s.078-.07.078-.155c0-.086.035-.156.078-.156.042 0 .077-.07.077-.156 0-.085.035-.155.078-.155s.078-.07.078-.156.035-.156.078-.156c.042 0 .077-.07.077-.155 0-.086.035-.156.078-.156s.078-.07.078-.156c0-.085.035-.155.078-.155.042 0 .077-.07.077-.156s.035-.156.078-.156.078-.07.078-.155c0-.086.035-.156.078-.156.042 0 .077-.07.077-.156 0-.085.035-.155.078-.155s.078-.07.078-.156.035-.156.078-.156.078-.07.078-.155c0-.086.035-.156.077-.156.043 0 .078-.07.078-.156 0-.085.035-.155.078-.155s.078-.07.078-.156.035-.156.077-.156c.043 0 .078-.07.078-.155 0-.086.035-.156.078-.156s.078-.07.078-.156c0-.085.035-.155.077-.155.043 0 .078-.07.078-.156s.035-.156.078-.156.078-.07.078-.155c0-.086.035-.156.077-.156.043 0 .078-.07.078-.156 0-.085.035-.155.078-.155s.078-.07.078-.156.035-.156.077-.156c.043 0 .078-.07.078-.155 0-.086.035-.156.078-.156s.078-.07.078-.156c0-.085.035-.155.078-.155.042 0 .077-.105.077-.234 0-.128.035-.233.078-.233s.078-.07.078-.156c0-.085.035-.156.078-.156.042 0 .077-.07.077-.155 0-.086.035-.156.078-.156s.078-.07.078-.156c0-.085.035-.155.078-.155.042 0 .077-.07.077-.156 0-.085.035-.155.078-.155s.078-.07.078-.156.035-.156.078-.156c.042 0 .077-.07.077-.155 0-.086.035-.156.078-.156s.078-.07.078-.156c0-.085.035-.155.078-.155.042 0 .077-.07.077-.156s.035-.156.078-.156.078-.07.078-.155c0-.086.035-.156.078-.156s.078-.07.078-.156c0-.085.035-.155.077-.155.043 0 .078-.07.078-.156s.035-.156.078-.156.078-.07.078-.155c0-.086.035-.156.077-.156.043 0 .078-.07.078-.156 0-.085.035-.155.078-.155s.078-.07.078-.156.035-.156.077-.156c.043 0 .078-.07.078-.155 0-.086.035-.156.078-.156s.078-.07.078-.156c0-.085.035-.155.077-.155.043 0 .078-.07.078-.156s.035-.156.078-.156.078-.07.078-.155c0-.086.035-.156.078-.156.042 0 .077-.07.077-.156 0-.085.035-.155.078-.155s.078-.07.078-.156.035-.156.078-.156c.042 0 .077-.07.077-.155 0-.086.035-.156.078-.156s.078-.07.078-.156c0-.085.035-.155.078-.155.042 0 .077-.07.077-.156s.035-.156.078-.156.078-.07.078-.155c0-.086.035-.156.078-.156.042 0 .077-.07.077-.156 0-.085.035-.155.078-.155s.078-.07.078-.156.035-.156.078-.156c.042 0 .077-.07.077-.155 0-.086.035-.156.078-.156s.078-.14.078-.311c0-.26-.026-.312-.156-.312-.085 0-.155-.035-.155-.077 0-.043-.07-.078-.156-.078-.085 0-.155-.035-.155-.078s-.07-.078-.156-.078c-.085 0-.155-.035-.155-.078s-.07-.078-.156-.078c-.085 0-.155-.035-.155-.077 0-.043-.07-.078-.156-.078-.085 0-.155-.035-.155-.078s-.07-.078-.156-.078c-.085 0-.155-.035-.155-.078 0-.042-.07-.077-.156-.077-.085 0-.155-.036-.155-.078 0-.043-.07-.078-.156-.078-.085 0-.155-.035-.155-.078s-.105-.078-.234-.078c-.128 0-.233-.035-.233-.078 0-.042-.07-.077-.156-.077-.085 0-.155-.036-.155-.078 0-.043-.07-.078-.156-.078-.085 0-.155-.035-.155-.078s-.07-.078-.156-.078c-.085 0-.155-.035-.155-.078 0-.042-.07-.077-.156-.077-.085 0-.155-.035-.155-.078s-.07-.078-.156-.078c-.085 0-.155-.035-.155-.078s-.07-.078-.156-.078c-.085 0-.155-.035-.155-.078 0-.042-.07-.077-.156-.077-.085 0-.155-.035-.155-.078s-.07-.078-.156-.078c-.085 0-.155-.035-.155-.078s-.07-.078-.156-.078c-.085 0-.155-.035-.155-.078 0-.042-.07-.077-.156-.077-.085 0-.155-.035-.155-.078s-.07-.078-.156-.078-.156-.035-.156-.078-.07-.078-.155-.078c-.086 0-.156-.035-.156-.078 0-.042-.07-.077-.155-.077-.086 0-.156-.035-.156-.078s-.07-.078-.155-.078c-.086 0-.156-.035-.156-.078s-.07-.078-.155-.078c-.086 0-.156-.035-.156-.078 0-.042-.07-.077-.155-.077-.086 0-.156-.035-.156-.078s-.07-.078-.155-.078c-.086 0-.156-.035-.156-.078s-.07-.078-.155-.078c-.086 0-.156-.035-.156-.078 0-.042-.07-.077-.155-.077-.086 0-.156-.035-.156-.078s-.07-.078-.155-.078c-.086 0-.156-.035-.156-.078s-.07-.078-.156-.078c-.085 0-.155-.035-.155-.078 0-.042-.07-.077-.156-.077-.085 0-.155-.035-.155-.078s-.07-.078-.156-.078c-.085 0-.155-.035-.155-.078s-.07-.078-.156-.078c-.085 0-.155-.035-.155-.077 0-.043-.07-.078-.156-.078-.085 0-.155-.035-.155-.078s-.07-.078-.156-.078c-.085 0-.155-.035-.155-.078s-.07-.078-.156-.078c-.085 0-.155-.035-.155-.077 0-.043-.07-.078-.156-.078-.085 0-.155-.035-.155-.078s-.07-.078-.156-.078c-.085 0-.155-.035-.155-.078s-.07-.078-.156-.078-.155-.035-.155-.077c0-.043-.07-.078-.156-.078s-.156-.035-.156-.078-.07-.078-.155-.078c-.086 0-.156-.035-.156-.078s-.07-.078-.155-.078c-.086 0-.156-.035-.156-.077 0-.043-.105-.078-.233-.078s-.233-.035-.233-.078-.07-.078-.156-.078c-.085 0-.155-.035-.155-.078s-.07-.078-.156-.078c-.085 0-.155-.035-.155-.077 0-.043-.07-.078-.156-.078-.085 0-.155-.035-.155-.078s-.07-.078-.156-.078c-.085 0-.155-.035-.155-.078s-.07-.078-.156-.078c-.085 0-.156-.035-.156-.077 0-.043-.07-.078-.155-.078-.085 0-.155-.035-.155-.078s-.07-.078-.156-.078-.156-.035-.156-.078-.07-.078-.155-.078c-.086 0-.156-.035-.156-.077 0-.043-.07-.078-.155-.078-.086 0-.156-.035-.156-.078s-.07-.078-.155-.078c-.086 0-.156-.035-.156-.078 0-.042-.07-.078-.155-.078-.086 0-.156-.035-.156-.077 0-.043-.07-.078-.155-.078-.086 0-.156-.035-.156-.078s-.07-.078-.155-.078c-.086 0-.156-.035-.156-.078 0-.042-.07-.077-.155-.077-.086 0-.156-.036-.156-.078 0-.043-.07-.078-.156-.078-.085 0-.155-.035-.155-.078s-.07-.078-.155-.078c-.086 0-.156-.035-.156-.078 0-.042-.07-.077-.156-.077-.085 0-.155-.036-.155-.078 0-.043-.07-.078-.156-.078-.085 0-.155-.035-.155-.078s-.07-.078-.156-.078c-.085 0-.155-.035-.155-.078 0-.115-.258-.088-.37.039zM3.577 7.701c0 .043-.207.078-.466.078-.26 0-.467.034-.467.077s-.07.078-.156.078c-.085 0-.155.035-.155.078s-.07.078-.156.078c-.085 0-.155.035-.155.078s-.062.078-.139.078c-.076 0-.188.07-.25.155-.062.086-.158.156-.214.156-.133 0-.641.509-.641.642 0 .056-.07.152-.156.214-.085.062-.155.174-.155.25 0 .077-.035.14-.078.14s-.078.07-.078.155c0 .085-.035.155-.078.155-.042 0-.077.106-.077.234s-.035.233-.078.233C.026 10.58 0 26.043 0 56.811c0 30.77.026 46.231.078 46.231.043 0 .078.106.078.234s.035.233.077.233c.043 0 .078.07.078.156s.035.156.078.156.078.062.078.138c0 .076.07.189.155.251.086.062.156.158.156.214 0 .133.508.642.64.642.057 0 .153.07.215.156.062.085.174.155.25.155.077 0 .139.035.139.078s.07.078.155.078c.086 0 .156.035.156.078s.07.078.155.078c.086 0 .156.035.156.078 0 .042.175.077.389.077.214 0 .389.035.389.078 0 .052 10.86.078 32.427.078 21.566 0 32.427-.026 32.427-.078 0-.043.14-.078.31-.078.172 0 .312-.035.312-.077 0-.043.105-.078.233-.078s.233-.035.233-.078.07-.078.156-.078c.085 0 .155-.035.155-.078s.053-.078.118-.078c.144 0 1.126-.968 1.126-1.11 0-.055.07-.151.156-.213.086-.061.156-.174.156-.25 0-.077.035-.139.077-.139.043 0 .078-.105.078-.233 0-.129.035-.234.078-.234s.078-.175.078-.389c0-.214.035-.389.077-.389.052 0 .078-2.543.078-7.472 0-4.11-.02-7.471-.043-7.471-.024 0-.25.21-.501.466-.252.257-.496.467-.543.467-.046 0-.502.42-1.013.934-.51.514-.965.934-1.011.934-.046 0-.395.316-.777.7-.382.386-.731.701-.777.701-.046 0-.5.42-1.011.934-.511.514-.966.934-1.01.934-.045 0-.309.227-.586.505l-.504.504v3.661H7.776V15.406h38.415v17.519l.19.19c.106.106.246.192.312.192s.12.035.12.078c0 .051 2.903.077 8.554.077h8.554v8.328c0 5.5.026 8.328.078 8.328.042 0 .077-.07.077-.156 0-.085.035-.155.078-.155s.078-.07.078-.156.035-.156.078-.156.078-.07.078-.155c0-.086.034-.156.077-.156s.078-.07.078-.156c0-.085.035-.155.078-.155s.078-.07.078-.156c0-.085.035-.155.077-.155.043 0 .078-.07.078-.156s.035-.156.078-.156.078-.07.078-.156c0-.085.034-.155.077-.155s.078-.07.078-.156.035-.156.078-.156.078-.07.078-.155c0-.086.035-.156.077-.156.043 0 .078-.105.078-.233 0-.129.035-.234.078-.234s.078-.07.078-.155c0-.086.035-.156.077-.156.043 0 .078-.07.078-.156 0-.085.035-.155.078-.155s.078-.07.078-.156.035-.156.078-.156c.042 0 .077-.07.077-.155 0-.086.035-.156.078-.156s.078-.07.078-.156c0-.085.035-.155.078-.155.042 0 .077-.07.077-.156s.035-.156.078-.156.078-.07.078-.155c0-.086.035-.156.078-.156.042 0 .077-.07.077-.156 0-.085.035-.155.078-.155s.078-.07.078-.156.035-.156.078-.156c.042 0 .077-.07.077-.155 0-.086.035-.156.078-.156s.078-.07.078-.156c0-.085.035-.155.078-.155.042 0 .077-.07.077-.156s.035-.156.078-.156.078-.07.078-.155c0-.086.035-.156.078-.156s.078-.07.078-.156c0-.085.035-.155.077-.155.043 0 .078-.07.078-.156s.035-.156.078-.156.078-.07.078-.155c0-.086.034-.156.077-.156s.078-.07.078-.156c0-.085.035-.155.078-.155s.078-.07.078-.156.035-.156.077-.156c.043 0 .078-.07.078-.155 0-.086.035-.156.078-.156s.078-.07.078-.155c0-.086.035-.156.077-.156.043 0 .078-.07.078-.156 0-.085.035-.155.078-.155s.078-.07.078-.156.035-.156.077-.156c.043 0 .078-.07.078-.156 0-.085.035-.155.078-.155s.078-.07.078-.156c0-.085.035-.156.078-.156.042 0 .077-.07.077-.155 0-.086.035-.156.078-.156s.078-.07.078-.156c0-.085.035-.155.078-.155.042 0 .077-.07.077-.156 0-.085.035-.155.078-.155s.078-.07.078-.156.035-.156.078-.156c.042 0 .077-.07.077-.155 0-.086.035-.156.078-.156s.078-.07.078-.156c0-.085.035-.155.078-.155.042 0 .077-.098.077-.217 0-.127.065-.262.156-.328a.425.425 0 00.156-.329c0-.119.034-.216.077-.216s.078-.07.078-.156c0-.085.035-.155.078-.155s.078-.07.078-.156.034-.156.077-.156.078-.07.078-.155c0-.086.035-.156.078-.156s.078-.07.078-.156c0-.085.035-.155.077-.155.043 0 .078-.07.078-.156s.035-.156.078-.156.078-.07.078-.155c0-.086.035-.156.077-.156.05 0 .078-.623.078-1.712 0-1.09-.028-1.713-.078-1.713-.042 0-.077-.175-.077-.389 0-.214-.035-.389-.078-.389s-.078-.105-.078-.233c0-.129-.035-.234-.078-.234s-.077-.062-.077-.138c0-.076-.07-.19-.156-.25-.085-.063-.156-.158-.156-.213 0-.13-20.576-20.724-20.706-20.724-.055 0-.15-.07-.212-.156-.061-.085-.174-.155-.25-.155-.076 0-.139-.036-.139-.078 0-.043-.07-.078-.155-.078-.086 0-.156-.035-.156-.078s-.07-.078-.155-.078c-.086 0-.156-.035-.156-.078 0-.042-.175-.077-.388-.077-.214 0-.39-.035-.39-.078 0-.052-7.49-.078-22.317-.078S3.577 7.649 3.577 7.7zm89.738 4.514c0 .043.07.078.156.078.085 0 .155.035.155.078 0 .042.07.077.156.077.085 0 .155.035.155.078s.07.078.156.078c.085 0 .155.035.155.078s.07.078.156.078c.085 0 .155.035.155.078 0 .042.07.077.156.077.085 0 .155.035.155.078s.07.078.156.078.155.035.155.078.07.078.156.078c.085 0 .156.035.156.078 0 .042.07.077.155.077.086 0 .156.035.156.078s.07.078.155.078c.086 0 .156.035.156.078s.07.078.155.078c.086 0 .156.035.156.077 0 .043.055.078.122.078s.172.05.233.111c.128.128.149.356.033.356-.042 0-.077.07-.077.156 0 .085-.035.156-.078.156s-.078.07-.078.155c0 .086-.035.156-.078.156-.042 0-.077.07-.077.156 0 .085-.035.155-.078.155s-.078.07-.078.156c0 .085-.035.155-.078.155-.042 0-.077.07-.077.156s-.035.156-.078.156-.078.07-.078.156c0 .085-.035.155-.078.155s-.078.07-.078.156c0 .085-.034.155-.077.155s-.078.07-.078.156-.035.156-.078.156c-.042 0-.077.07-.077.155 0 .086-.035.156-.078.156s-.078.07-.078.156c0 .085-.035.155-.078.155s-.078.07-.078.156-.034.156-.077.156-.078.07-.078.155c0 .086-.035.156-.078.156s-.078.07-.078.156c0 .085-.035.155-.077.155-.043 0-.078.07-.078.156s-.035.156-.078.156-.078.07-.078.155c0 .086-.035.156-.077.156-.043 0-.078.07-.078.156 0 .085-.035.155-.078.155s-.078.07-.078.156-.035.156-.078.156c-.042 0-.077.07-.077.155 0 .086-.035.156-.078.156s-.078.07-.078.156c0 .085-.035.155-.078.155-.042 0-.077.07-.077.156s-.035.156-.078.156-.078.105-.078.233c0 .129-.035.234-.078.234-.042 0-.077.062-.077.138 0 .076-.07.19-.156.25a.425.425 0 00-.155.33c0 .118-.035.216-.078.216s-.078.07-.078.155c0 .086-.035.156-.078.156-.042 0-.077.07-.077.156 0 .085-.035.155-.078.155s-.078.07-.078.156c0 .085-.035.156-.078.156-.042 0-.078.07-.078.155 0 .086-.035.156-.077.156-.043 0-.078.07-.078.155 0 .086-.035.156-.078.156s-.078.07-.078.156c0 .085-.034.155-.077.155s-.078.07-.078.156-.035.156-.078.156-.078.07-.078.155c0 .086-.035.156-.077.156-.043 0-.078.07-.078.156 0 .085-.035.155-.078.155s-.078.07-.078.156-.035.156-.077.156c-.043 0-.078.07-.078.155 0 .086-.035.156-.078.156s-.078.07-.078.156c0 .085-.035.155-.077.155-.043 0-.078.07-.078.156s-.035.156-.078.156-.078.07-.078.155c0 .086-.035.156-.078.156-.042 0-.077.07-.077.156 0 .085-.035.155-.078.155s-.078.07-.078.156-.035.156-.078.156c-.042 0-.077.07-.077.155 0 .086-.035.156-.078.156s-.078.07-.078.156c0 .085-.035.155-.078.155-.042 0-.077.07-.077.156s-.035.156-.078.156-.078.07-.078.155c0 .086-.035.156-.078.156-.042 0-.077.07-.077.156 0 .085-.035.155-.078.155s-.078.07-.078.156-.035.156-.078.156c-.042 0-.078.07-.078.155 0 .086-.034.156-.077.156s-.078.07-.078.156c0 .085-.035.155-.078.155s-.078.07-.078.156-.034.156-.077.156-.078.07-.078.155c0 .086-.035.156-.078.156s-.078.07-.078.156c0 .085-.035.155-.077.155-.043 0-.078.07-.078.156 0 .085-.035.156-.078.156s-.078.07-.078.155c0 .086-.035.156-.077.156-.043 0-.078.07-.078.155 0 .086-.035.156-.078.156s-.078.07-.078.156c0 .085-.035.155-.077.155-.043 0-.078.106-.078.234s-.035.234-.078.234-.078.07-.078.155c0 .086-.035.156-.078.156-.042 0-.077.07-.077.156 0 .085-.035.155-.078.155s-.078.07-.078.156c0 .085-.035.155-.078.155-.042 0-.077.07-.077.156s-.035.156-.078.156-.078.07-.078.155c0 .086-.035.156-.078.156-.042 0-.077.07-.077.156 0 .085-.035.155-.078.155s-.078.07-.078.156-.035.156-.078.156c-.042 0-.077.07-.077.155 0 .086-.035.156-.078.156s-.078.07-.078.156c0 .085-.035.155-.078.155-.042 0-.077.07-.077.156s-.035.156-.078.156-.078.07-.078.155c0 .086-.035.156-.078.156s-.078.07-.078.156c0 .085-.035.155-.077.155-.043 0-.078.07-.078.156s-.035.156-.078.156-.078.07-.078.155c0 .086-.034.156-.077.156s-.078.07-.078.156c0 .085-.035.155-.078.155s-.078.07-.078.156-.035.156-.077.156c-.043 0-.078.07-.078.155 0 .086-.035.156-.078.156s-.078.07-.078.156c0 .085-.035.155-.077.155-.043 0-.078.07-.078.156s-.035.156-.078.156-.078.07-.078.155c0 .086-.035.156-.078.156-.042 0-.077.07-.077.156 0 .085-.035.155-.078.155s-.078.07-.078.156c0 .085-.035.155-.078.155-.042 0-.077.07-.077.156s-.035.156-.078.156-.078.07-.078.155c0 .086-.035.156-.078.156-.042 0-.077.07-.077.156s-.035.155-.078.155-.078.07-.078.156-.035.156-.078.156c-.042 0-.077.07-.077.156 0 .085-.035.155-.078.155s-.078.07-.078.156c0 .085-.035.156-.078.156-.042 0-.077.07-.077.155 0 .086-.035.156-.078.156s-.078.07-.078.155c0 .086-.035.156-.078.156-.042 0-.077.07-.077.156 0 .085-.035.155-.078.155s-.078.07-.078.156-.035.156-.078.156-.078.07-.078.155c0 .086-.034.156-.077.156s-.078.07-.078.156c0 .085-.035.155-.078.155s-.078.07-.078.156-.035.156-.077.156c-.043 0-.078.105-.078.233 0 .129-.035.234-.078.234s-.078.07-.078.155c0 .086-.035.156-.077.156-.043 0-.078.07-.078.156 0 .085-.035.155-.078.155s-.078.07-.078.156-.035.156-.077.156c-.043 0-.078.07-.078.155 0 .086-.035.156-.078.156s-.078.07-.078.156c0 .085-.035.155-.078.155-.042 0-.077.07-.077.156s-.035.156-.078.156-.078.07-.078.155c0 .086-.035.156-.078.156-.042 0-.077.07-.077.156 0 .085-.035.155-.078.155s-.078.07-.078.156-.035.156-.078.156c-.042 0-.077.07-.077.155 0 .086-.035.156-.078.156s-.078.07-.078.156c0 .085-.035.155-.078.155-.042 0-.077.07-.077.156 0 .085-.035.155-.078.155s-.078.07-.078.156-.035.156-.078.156c-.042 0-.078.07-.078.155 0 .086-.034.156-.077.156s-.078.07-.078.156c0 .085-.035.155-.078.155s-.078.07-.078.156-.034.156-.077.156-.078.07-.078.156c0 .085-.035.155-.078.155s-.078.07-.078.156c0 .085-.035.155-.077.155-.043 0-.078.07-.078.156s-.035.156-.078.156-.078.07-.078.155c0 .086-.035.156-.077.156-.043 0-.078.07-.078.156 0 .085-.035.155-.078.155s-.078.07-.078.156-.035.156-.077.156c-.043 0-.078.07-.078.155 0 .086-.035.156-.078.156s-.078.07-.078.156c0 .085-.035.155-.078.155-.042 0-.077.07-.077.156s-.035.156-.078.156-.078.07-.078.155c0 .086-.035.156-.078.156-.042 0-.077.07-.077.156 0 .085-.035.155-.078.155s-.078.07-.078.156-.035.156-.078.156c-.042 0-.077.07-.077.155 0 .086-.035.156-.078.156s-.078.07-.078.156c0 .085-.035.155-.078.155-.042 0-.077.105-.077.234 0 .128-.035.233-.078.233s-.078.063-.078.139c0 .076-.07.189-.155.25a.425.425 0 00-.156.329c0 .119-.035.216-.078.216s-.078.07-.078.156-.034.156-.077.156-.078.07-.078.155c0 .086-.035.156-.078.156-.042 0-.078.07-.078.156 0 .085-.034.155-.077.155s-.078.07-.078.156c0 .085-.035.155-.078.155s-.078.07-.078.156-.035.156-.077.156c-.043 0-.078.07-.078.155 0 .086-.035.156-.078.156s-.078.07-.078.156c0 .085-.035.155-.077.155-.043 0-.078.07-.078.156s-.035.156-.078.156-.078.07-.078.155c0 .086-.035.156-.077.156-.043 0-.078.07-.078.156 0 .085-.035.155-.078.155s-.078.07-.078.156-.035.156-.078.156c-.042 0-.077.07-.077.155 0 .086-.035.156-.078.156s-.078.07-.078.156c0 .085-.035.155-.078.155-.042 0-.077.07-.077.156s-.035.156-.078.156-.078.07-.078.155c0 .086-.035.156-.078.156-.042 0-.077.07-.077.156 0 .085-.035.155-.078.155s-.078.07-.078.156-.035.156-.078.156c-.042 0-.077.07-.077.155 0 .086-.035.156-.078.156s-.078.07-.078.156c0 .085-.035.155-.078.155s-.078.07-.078.156-.035.156-.077.156c-.043 0-.078.07-.078.155 0 .086-.035.156-.078.156s-.078.07-.078.156c0 .085-.034.155-.077.155s-.078.07-.078.156c0 .085-.035.156-.078.156s-.078.07-.078.155c0 .086-.035.156-.077.156-.043 0-.078.07-.078.156 0 .085-.035.155-.078.155s-.078.055-.078.123a.406.406 0 01-.115.238c-.103.102-.138.093-.311-.08-.108-.108-.196-.242-.196-.299 0-.057-.07-.154-.155-.215-.086-.062-.156-.16-.156-.22 0-.059-.105-.205-.233-.325-.128-.12-.233-.26-.233-.311 0-.052-.105-.192-.234-.312-.128-.12-.233-.26-.233-.311 0-.051-.105-.191-.233-.311-.129-.12-.234-.26-.234-.312 0-.051-.105-.191-.233-.311s-.233-.274-.233-.343c0-.068-.035-.124-.078-.124s-.078-.07-.078-.156c0-.085.035-.155.078-.155s.078-.098.078-.217c0-.127.064-.262.156-.328a.43.43 0 00.155-.311c0-.11.07-.25.156-.312a.43.43 0 00.155-.311c0-.11.07-.25.156-.311a.425.425 0 00.155-.329c0-.119.035-.216.078-.216s.078-.07.078-.156.035-.156.077-.156c.043 0 .078-.07.078-.155 0-.086.035-.156.078-.156s.078-.07.078-.156c0-.085.035-.155.077-.155.043 0 .078-.07.078-.156 0-.085.035-.155.078-.155s.078-.07.078-.156.035-.156.078-.156c.042 0 .077-.07.077-.155 0-.086.035-.156.078-.156s.078-.07.078-.156c0-.085.035-.155.078-.155.042 0 .077-.07.077-.156s.035-.156.078-.156.078-.07.078-.155c0-.086.035-.156.078-.156.042 0 .077-.07.077-.156 0-.085.035-.155.078-.155s.078-.07.078-.156.035-.156.078-.156c.042 0 .077-.07.077-.155 0-.086.035-.156.078-.156s.078-.07.078-.156c0-.085.035-.155.078-.155.042 0 .077-.07.077-.156s.035-.156.078-.156.078-.07.078-.155c0-.086.035-.156.078-.156s.078-.07.078-.156c0-.085.034-.155.077-.155s.078-.07.078-.156.035-.156.078-.156c.042 0 .078-.07.078-.155 0-.086.034-.156.077-.156s.078-.07.078-.156c0-.085.035-.155.078-.155s.078-.07.078-.156.035-.156.077-.156c.043 0 .078-.07.078-.155 0-.086.035-.156.078-.156s.078-.07.078-.156c0-.085.035-.155.077-.155.043 0 .078-.07.078-.156 0-.085.035-.156.078-.156s.078-.07.078-.155c0-.086.035-.156.077-.156.043 0 .078-.07.078-.155 0-.086.035-.156.078-.156s.078-.07.078-.156.035-.156.077-.156c.043 0 .078-.07.078-.155 0-.086.035-.156.078-.156s.078-.07.078-.156c0-.085.035-.155.078-.155.042 0 .077-.07.077-.156 0-.085.035-.156.078-.156s.078-.07.078-.155c0-.086.035-.156.078-.156.042 0 .077-.105.077-.233 0-.129.035-.234.078-.234s.078-.07.078-.155c0-.086.035-.156.078-.156.042 0 .077-.07.077-.156 0-.085.035-.155.078-.155s.078-.07.078-.156.035-.156.078-.156.078-.07.078-.155c0-.086.035-.156.077-.156.043 0 .078-.07.078-.156 0-.085.035-.155.078-.155s.078-.07.078-.156.034-.156.077-.156.078-.07.078-.155c0-.086.035-.156.078-.156s.078-.07.078-.156c0-.085.035-.155.077-.155.043 0 .078-.07.078-.156s.035-.156.078-.156.078-.07.078-.155c0-.086.035-.156.077-.156.043 0 .078-.07.078-.156 0-.085.035-.155.078-.155s.078-.07.078-.156.035-.156.077-.156c.043 0 .078-.07.078-.155 0-.086.035-.156.078-.156s.078-.07.078-.156c0-.085.035-.155.078-.155.042 0 .077-.07.077-.156s.035-.156.078-.156.078-.07.078-.155c0-.086.035-.156.078-.156.042 0 .077-.07.077-.156 0-.085.035-.155.078-.155s.078-.07.078-.156c0-.085.035-.155.078-.155.042 0 .077-.07.077-.156s.035-.156.078-.156.078-.07.078-.155c0-.086.035-.156.078-.156.042 0 .077-.07.077-.156s.035-.156.078-.156.078-.07.078-.155c0-.086.035-.156.078-.156s.077-.07.077-.156c0-.085.035-.155.078-.155s.078-.07.078-.156c0-.085.035-.156.078-.156s.078-.07.078-.155c0-.086.034-.156.077-.156s.078-.07.078-.155c0-.086.035-.156.078-.156s.078-.07.078-.156c0-.085.035-.155.077-.155.043 0 .078-.07.078-.156s.035-.156.078-.156.078-.07.078-.155c0-.086.035-.156.077-.156.043 0 .078-.07.078-.156 0-.085.035-.155.078-.155s.078-.07.078-.156.035-.156.077-.156c.043 0 .078-.07.078-.155 0-.086.035-.156.078-.156s.078-.07.078-.156c0-.085.035-.155.078-.155.042 0 .077-.105.077-.234 0-.128.035-.233.078-.233s.078-.07.078-.156.035-.156.078-.156c.042 0 .077-.07.077-.155 0-.086.035-.156.078-.156s.078-.07.078-.156c0-.085.035-.155.078-.155.042 0 .077-.07.077-.156s.035-.156.078-.156.078-.07.078-.155c0-.086.035-.156.078-.156.042 0 .077-.07.077-.156 0-.085.035-.155.078-.155s.078-.07.078-.156.035-.156.078-.156c.042 0 .077-.07.077-.155 0-.086.035-.156.078-.156s.078-.07.078-.156c0-.085.035-.155.078-.155s.078-.07.078-.156c0-.085.034-.155.077-.155s.078-.07.078-.156.035-.156.078-.156c.042 0 .078-.07.078-.155 0-.086.035-.156.077-.156.043 0 .078-.07.078-.156 0-.085.035-.155.078-.155s.078-.07.078-.156.035-.156.077-.156c.043 0 .078-.07.078-.155 0-.086.035-.156.078-.156s.078-.07.078-.156c0-.085.035-.155.077-.155.043 0 .078-.07.078-.156s.035-.156.078-.156.078-.07.078-.155c0-.086.035-.156.077-.156.043 0 .078-.07.078-.156 0-.085.035-.155.078-.155s.078-.07.078-.156.035-.156.078-.156c.042 0 .077-.07.077-.155 0-.086.035-.156.078-.156s.078-.07.078-.156c0-.085.035-.155.078-.155.042 0 .077-.07.077-.156s.035-.156.078-.156.078-.07.078-.155c0-.086.035-.156.078-.156.042 0 .077-.07.077-.156 0-.085.035-.155.078-.155s.078-.07.078-.156.035-.156.078-.156c.042 0 .077-.07.077-.155 0-.086.035-.156.078-.156s.078-.07.078-.156c0-.085.035-.155.078-.155s.078-.07.078-.156.034-.156.077-.156.078-.07.078-.155c0-.086.035-.156.078-.156.042 0 .078-.07.078-.156 0-.085.035-.155.077-.155.043 0 .078-.07.078-.156 0-.085.035-.156.078-.156s.078-.07.078-.155c0-.086.035-.156.077-.156.043 0 .078-.105.078-.233 0-.129.035-.234.078-.234s.078-.07.078-.155c0-.086.035-.156.077-.156.043 0 .078-.07.078-.156 0-.085.035-.155.078-.155s.078-.07.078-.156.035-.156.077-.156c.043 0 .078-.07.078-.155 0-.086.035-.156.078-.156s.078-.07.078-.156c0-.085.035-.155.077-.155.043 0 .078-.07.078-.156s.035-.156.078-.156.078-.07.078-.155c0-.086.035-.156.078-.156.042 0 .077-.07.077-.156 0-.085.035-.155.078-.155s.078-.07.078-.156.035-.156.078-.156c.042 0 .077-.07.077-.155 0-.086.035-.156.078-.156s.078-.07.078-.156c0-.085.035-.155.078-.155.042 0 .077-.07.077-.156s.035-.156.078-.156.078-.07.078-.155c0-.086.035-.156.078-.156.042 0 .077-.07.077-.156 0-.085.035-.155.078-.155s.078-.07.078-.156.035-.156.078-.156.078-.07.078-.155c0-.086.034-.156.077-.156s.078-.07.078-.156c0-.085.035-.155.078-.155s.078-.07.078-.156.035-.156.077-.156c.043 0 .078-.07.078-.155 0-.086.035-.156.078-.156s.078-.07.078-.156c0-.085.035-.155.077-.155.043 0 .078-.07.078-.156 0-.085.035-.156.078-.156s.078-.07.078-.155c0-.086.035-.156.077-.156.043 0 .078-.07.078-.156 0-.085.035-.155.078-.155s.078-.07.078-.156c0-.085.035-.155.078-.155.042 0 .077-.07.077-.156s.035-.156.078-.156.078-.07.078-.155c0-.086.035-.156.078-.156.042 0 .077-.07.077-.156 0-.085.035-.155.078-.155s.078-.07.078-.156.035-.156.078-.156c.042 0 .077-.07.077-.155 0-.086.035-.156.078-.156s.078-.07.078-.156c0-.085.035-.155.078-.155.042 0 .077-.07.077-.156s.035-.156.078-.156.078-.07.078-.155c0-.086.035-.156.078-.156.042 0 .077-.07.077-.156 0-.085.035-.155.078-.155s.078-.105.078-.234c0-.128.035-.233.078-.233s.078-.063.078-.139c0-.076.07-.189.155-.25.085-.062.155-.175.155-.251 0-.076.035-.139.078-.139s.078-.105.078-.233c0-.129.035-.234.078-.234s.078-.062.078-.138c0-.076.07-.19.155-.25.086-.063.156-.175.156-.252 0-.076.035-.138.077-.138.043 0 .078.035.078.078zm8.087 4.047c0 .043.07.078.156.078s.156.035.156.078.097.078.216.078c.127 0 .262.064.328.155a.424.424 0 00.328.156c.119 0 .216.035.216.078 0 .042.07.077.156.077.085 0 .155.035.155.078s.07.078.156.078c.085 0 .155.035.155.078s.07.078.156.078c.085 0 .155.035.155.078 0 .042.07.078.156.078.085 0 .155.035.155.077 0 .043.07.078.156.078.085 0 .155.035.155.078s.07.078.156.078c.085 0 .155.035.155.078 0 .042.07.077.156.077.121 0 .156.052.156.234 0 .128-.035.233-.078.233s-.078.07-.078.156-.035.156-.078.156-.078.07-.078.155c0 .086-.035.156-.077.156-.043 0-.078.07-.078.156 0 .085-.035.155-.078.155s-.078.07-.078.156-.035.156-.077.156c-.043 0-.078.07-.078.155 0 .086-.035.156-.078.156s-.078.07-.078.156c0 .085-.035.155-.077.155-.043 0-.078.07-.078.156s-.035.156-.078.156-.078.07-.078.155c0 .086-.035.156-.077.156-.043 0-.078.07-.078.156 0 .085-.035.155-.078.155s-.078.07-.078.156-.035.156-.077.156c-.043 0-.078.07-.078.155 0 .086-.035.156-.078.156s-.078.07-.078.156c0 .085-.035.155-.078.155-.042 0-.077.07-.077.156 0 .085-.035.156-.078.156s-.078.07-.078.155c0 .086-.035.156-.078.156-.042 0-.077.07-.077.156 0 .085-.035.155-.078.155s-.078.07-.078.156c0 .085-.035.155-.078.155-.042 0-.077.07-.077.156s-.035.156-.078.156-.078.07-.078.155c0 .086-.035.156-.078.156-.042 0-.077.07-.077.156 0 .085-.035.155-.078.155s-.078.07-.078.156-.035.156-.078.156-.077.07-.077.155c0 .086-.035.156-.078.156s-.078.07-.078.156c0 .085-.035.155-.078.155s-.078.07-.078.156-.035.156-.077.156c-.043 0-.078.07-.078.155 0 .086-.035.156-.078.156s-.078.07-.078.156c0 .085-.035.155-.077.155-.043 0-.078.07-.078.156s-.035.156-.078.156-.078.07-.078.155c0 .086-.035.156-.077.156-.043 0-.078.07-.078.156 0 .085-.035.155-.078.155s-.078.07-.078.156-.035.156-.077.156c-.043 0-.078.07-.078.155 0 .086-.035.156-.078.156s-.078.07-.078.156c0 .085-.035.155-.078.155-.042 0-.077.105-.077.234 0 .128-.035.233-.078.233s-.078.07-.078.156-.035.156-.078.156c-.042 0-.077.07-.077.155 0 .086-.035.156-.078.156s-.078.07-.078.156c0 .085-.035.155-.078.155-.042 0-.077.07-.077.156s-.035.156-.078.156-.078.07-.078.155c0 .086-.035.156-.078.156-.042 0-.077.07-.077.156 0 .085-.035.155-.078.155s-.078.07-.078.156c0 .085-.035.156-.078.156s-.078.07-.078.155c0 .086-.034.156-.077.156s-.078.07-.078.155c0 .086-.035.156-.078.156s-.078.07-.078.156c0 .085-.035.155-.077.155-.043 0-.078.07-.078.156s-.035.156-.078.156-.078.07-.078.156c0 .085-.035.155-.077.155-.043 0-.078.07-.078.156 0 .085-.035.156-.078.156s-.078.07-.078.155c0 .086-.035.156-.077.156-.043 0-.078.07-.078.155 0 .086-.035.156-.078.156s-.078.07-.078.156c0 .085-.035.155-.077.155-.043 0-.078.07-.078.156s-.035.156-.078.156-.078.07-.078.155c0 .086-.035.156-.078.156-.042 0-.077.07-.077.156 0 .085-.035.155-.078.155s-.078.07-.078.156-.035.156-.078.156c-.042 0-.077.07-.077.155 0 .086-.035.156-.078.156s-.078.07-.078.156c0 .085-.035.155-.078.155-.042 0-.077.07-.077.156s-.035.156-.078.156-.078.07-.078.155c0 .086-.035.156-.078.156-.042 0-.077.07-.077.156 0 .085-.035.155-.078.155s-.078.07-.078.156-.035.156-.078.156-.078.07-.078.155c0 .086-.034.156-.077.156s-.078.07-.078.156c0 .085-.035.155-.078.155-.042 0-.077.07-.077.156s-.035.156-.078.156-.078.07-.078.155c0 .086-.035.156-.078.156s-.078.105-.078.233c0 .129-.034.234-.077.234s-.078.062-.078.138c0 .077-.07.19-.156.251a.426.426 0 00-.155.329c0 .118-.035.216-.078.216s-.078.07-.078.155c0 .086-.035.156-.077.156-.043 0-.078.07-.078.156s-.035.155-.078.155-.078.07-.078.156-.035.156-.078.156c-.042 0-.077.07-.077.156 0 .085-.035.155-.078.155s-.078.07-.078.156c0 .085-.035.156-.078.156-.042 0-.077.07-.077.155 0 .086-.035.156-.078.156s-.078.07-.078.155c0 .086-.035.156-.078.156-.042 0-.077.07-.077.156 0 .085-.035.155-.078.155s-.078.07-.078.156-.035.156-.078.156c-.042 0-.077.07-.077.155 0 .086-.035.156-.078.156s-.078.07-.078.156c0 .085-.035.155-.078.155-.042 0-.077.07-.077.156s-.035.156-.078.156-.078.07-.078.155c0 .086-.035.156-.078.156-.042 0-.078.07-.078.156 0 .085-.035.155-.077.155-.043 0-.078.07-.078.156s-.035.156-.078.156-.078.07-.078.155c0 .086-.034.156-.077.156s-.078.07-.078.156c0 .085-.035.155-.078.155s-.078.07-.078.156-.035.156-.077.156c-.043 0-.078.07-.078.155 0 .086-.035.156-.078.156s-.078.07-.078.156c0 .085-.035.155-.077.155-.043 0-.078.07-.078.156s-.035.156-.078.156-.078.07-.078.155c0 .086-.035.156-.077.156-.043 0-.078.07-.078.156 0 .085-.035.155-.078.155s-.078.07-.078.156-.035.156-.078.156c-.042 0-.077.07-.077.155 0 .086-.035.156-.078.156s-.078.07-.078.155c0 .086-.035.156-.078.156-.042 0-.077.07-.077.156 0 .085-.035.155-.078.155s-.078.07-.078.156-.035.156-.078.156c-.042 0-.077.07-.077.155 0 .086-.035.156-.078.156s-.078.07-.078.156c0 .085-.035.156-.078.156-.042 0-.077.07-.077.155 0 .086-.035.156-.078.156s-.078.097-.078.216a.425.425 0 01-.156.329c-.085.061-.155.174-.155.25 0 .076-.035.139-.078.139s-.078.105-.078.233c0 .129-.034.234-.077.234s-.078.07-.078.155c0 .086-.035.156-.078.156s-.078.07-.078.156c0 .085-.035.155-.077.155-.043 0-.078.07-.078.156s-.035.156-.078.156-.078.07-.078.155c0 .086-.035.156-.077.156-.043 0-.078.07-.078.156 0 .085-.035.155-.078.155s-.078.07-.078.156-.035.156-.077.156c-.043 0-.078.07-.078.155 0 .086-.035.156-.078.156s-.078.07-.078.156c0 .085-.035.155-.078.155-.042 0-.077.07-.077.156s-.035.156-.078.156-.078.07-.078.155c0 .086-.035.156-.078.156-.042 0-.077.07-.077.156 0 .085-.035.155-.078.155s-.078.07-.078.156-.035.156-.078.156c-.042 0-.077.07-.077.155 0 .086-.035.156-.078.156s-.078.07-.078.156c0 .085-.035.155-.078.155-.042 0-.077.07-.077.156s-.035.156-.078.156-.078.07-.078.155c0 .086-.035.156-.078.156-.042 0-.077.07-.077.155 0 .086-.035.156-.078.156s-.078.07-.078.156c0 .085-.035.155-.078.155s-.078.07-.078.156-.035.156-.077.156c-.043 0-.078.07-.078.155 0 .086-.035.156-.078.156s-.078.07-.078.156c0 .085-.034.155-.077.155s-.078.07-.078.156-.035.156-.078.156-.078.07-.078.155c0 .086-.035.156-.077.156-.043 0-.078.07-.078.156 0 .085-.035.155-.078.155s-.078.07-.078.156-.035.156-.077.156c-.043 0-.078.07-.078.155 0 .086-.035.156-.078.156s-.078.07-.078.156c0 .085-.035.155-.078.155-.042 0-.077.07-.077.156s-.035.156-.078.156-.078.07-.078.155c0 .086-.035.156-.078.156-.042 0-.077.097-.077.216a.425.425 0 01-.156.329c-.085.061-.155.174-.155.25 0 .077-.035.139-.078.139s-.078.105-.078.233c0 .129-.035.234-.078.234-.042 0-.077.07-.077.156 0 .085-.035.155-.078.155s-.078.07-.078.156c0 .085-.035.156-.078.156-.042 0-.077.07-.077.155 0 .086-.035.156-.078.156s-.078.07-.078.156c0 .085-.035.155-.078.155-.042 0-.077.07-.077.156s-.035.156-.078.156-.078.07-.078.155c0 .086-.035.156-.078.156s-.078.07-.078.156c0 .085-.034.155-.077.155s-.078.07-.078.156-.035.156-.078.156-.078.07-.078.155c0 .086-.035.156-.077.156-.043 0-.078.07-.078.155 0 .086-.035.156-.078.156s-.078.07-.078.156c0 .085-.035.155-.077.155-.043 0-.078.056-.078.123 0 .328-.117.344-2.444.344-1.43 0-2.222.028-2.222.078a.078.078 0 01-.078.078c-.042 0-.077-.07-.077-.156 0-.085.035-.155.077-.155.043 0 .078-.07.078-.156 0-.085.035-.156.078-.156s.078-.07.078-.155c0-.086.035-.156.077-.156.043 0 .078-.07.078-.156 0-.085.035-.155.078-.155s.078-.07.078-.156c0-.085.035-.155.077-.155.043 0 .078-.07.078-.156s.035-.156.078-.156.078-.105.078-.233c0-.129.035-.234.078-.234.042 0 .077-.07.077-.155 0-.086.035-.156.078-.156s.078-.07.078-.156c0-.085.035-.155.078-.155.042 0 .077-.07.077-.156s.035-.156.078-.156.078-.07.078-.155c0-.086.035-.156.078-.156.042 0 .077-.07.077-.156 0-.085.035-.155.078-.155s.078-.07.078-.156.035-.156.078-.156c.042 0 .077-.07.077-.155 0-.086.035-.156.078-.156s.078-.07.078-.156c0-.085.035-.155.078-.155s.077-.07.077-.156.035-.156.078-.156.078-.07.078-.155c0-.086.035-.156.078-.156s.078-.07.078-.156c0-.085.034-.155.077-.155s.078-.07.078-.156.035-.156.078-.156.078-.07.078-.155c0-.086.035-.156.077-.156.043 0 .078-.07.078-.156 0-.085.035-.155.078-.155s.078-.07.078-.156.035-.156.077-.156c.043 0 .078-.07.078-.155 0-.086.035-.156.078-.156s.078-.07.078-.156c0-.085.035-.155.077-.155.043 0 .078-.07.078-.156 0-.085.035-.156.078-.156s.078-.07.078-.155c0-.086.035-.156.078-.156.042 0 .077-.07.077-.156 0-.085.035-.155.078-.155s.078-.07.078-.156.035-.156.078-.156c.042 0 .077-.07.077-.155 0-.086.035-.156.078-.156s.078-.07.078-.156c0-.085.035-.155.078-.155.042 0 .077-.07.077-.156 0-.085.035-.155.078-.155s.078-.07.078-.156.035-.156.078-.156c.042 0 .077-.07.077-.155 0-.086.035-.156.078-.156s.078-.07.078-.156c0-.085.035-.155.078-.155.042 0 .077-.07.077-.156s.035-.156.078-.156.078-.07.078-.155c0-.086.035-.156.078-.156s.078-.07.078-.156c0-.085.034-.155.077-.155s.078-.07.078-.156.035-.156.078-.156c.042 0 .078-.07.078-.155 0-.086.035-.156.077-.156.043 0 .078-.07.078-.156 0-.085.035-.155.078-.155s.078-.07.078-.156.035-.156.077-.156c.043 0 .078-.105.078-.233 0-.129.035-.234.078-.234s.078-.07.078-.155c0-.086.035-.156.077-.156.043 0 .078-.07.078-.156 0-.085.035-.155.078-.155s.078-.07.078-.156.035-.156.077-.156c.043 0 .078-.07.078-.155 0-.086.035-.156.078-.156s.078-.07.078-.156c0-.085.035-.155.078-.155.042 0 .077-.07.077-.156s.035-.156.078-.156.078-.07.078-.155c0-.086.035-.156.078-.156.042 0 .077-.07.077-.156 0-.085.035-.155.078-.155s.078-.07.078-.156c0-.085.035-.155.078-.155.042 0 .077-.07.077-.156s.035-.156.078-.156.078-.07.078-.156c0-.085.035-.155.078-.155.042 0 .077-.07.077-.156s.035-.156.078-.156.078-.07.078-.155c0-.086.035-.156.078-.156s.078-.07.078-.156c0-.085.034-.155.077-.155s.078-.07.078-.156c0-.085.035-.155.078-.155.042 0 .078-.07.078-.156s.035-.156.077-.156c.043 0 .078-.07.078-.155 0-.086.035-.156.078-.156s.078-.07.078-.156c0-.085.035-.155.077-.155.043 0 .078-.07.078-.156s.035-.156.078-.156.078-.07.078-.155c0-.086.035-.156.077-.156.043 0 .078-.07.078-.156 0-.085.035-.155.078-.155s.078-.07.078-.156.035-.156.077-.156c.043 0 .078-.07.078-.155 0-.086.035-.156.078-.156s.078-.07.078-.156c0-.085.035-.155.077-.155.043 0 .078-.07.078-.156s.035-.156.078-.156.078-.07.078-.155c0-.086.035-.156.078-.156.042 0 .077-.07.077-.156 0-.085.035-.155.078-.155s.078-.07.078-.156.035-.156.078-.156c.042 0 .077-.07.077-.155 0-.086.035-.156.078-.156s.078-.07.078-.156c0-.085.035-.155.078-.155.042 0 .077-.07.077-.156s.035-.156.078-.156.078-.07.078-.155c0-.086.035-.156.078-.156.042 0 .077-.07.077-.156 0-.085.035-.155.078-.155s.078-.105.078-.234c0-.128.035-.233.078-.233s.078-.07.078-.156c0-.085.034-.155.077-.155s.078-.07.078-.156.035-.156.078-.156.078-.07.078-.156c0-.085.035-.155.077-.155.043 0 .078-.07.078-.156 0-.085.035-.156.078-.156s.078-.07.078-.155c0-.086.035-.156.077-.156.043 0 .078-.07.078-.156 0-.085.035-.155.078-.155s.078-.07.078-.156c0-.085.035-.155.077-.155.043 0 .078-.07.078-.156s.035-.156.078-.156.078-.07.078-.155c0-.086.035-.156.078-.156.042 0 .077-.07.077-.156 0-.085.035-.155.078-.155s.078-.07.078-.156.035-.156.078-.156c.042 0 .077-.07.077-.155 0-.086.035-.156.078-.156s.078-.07.078-.156c0-.085.035-.155.078-.155.042 0 .077-.07.077-.156s.035-.156.078-.156.078-.07.078-.155c0-.086.035-.156.078-.156.042 0 .077-.07.077-.156 0-.085.035-.155.078-.155s.078-.07.078-.156.035-.156.078-.156c.042 0 .077-.07.077-.155 0-.086.035-.156.078-.156s.078-.07.078-.156c0-.085.035-.155.078-.155s.078-.07.078-.156.034-.156.077-.156.078-.07.078-.155c0-.086.035-.156.078-.156s.078-.07.078-.156c0-.085.035-.155.077-.155.043 0 .078-.07.078-.156s.035-.156.078-.156.078-.07.078-.155c0-.086.035-.156.077-.156.043 0 .078-.07.078-.156 0-.085.035-.155.078-.155s.078-.07.078-.156c0-.085.035-.155.077-.155.043 0 .078-.07.078-.156s.035-.156.078-.156.078-.07.078-.155c0-.086.035-.156.077-.156.043 0 .078-.07.078-.156 0-.085.035-.155.078-.155s.078-.07.078-.156.035-.156.078-.156c.042 0 .077-.07.077-.155 0-.086.035-.156.078-.156s.078-.07.078-.156c0-.085.035-.155.078-.155.042 0 .077-.07.077-.156s.035-.156.078-.156.078-.105.078-.233c0-.129.035-.234.078-.234.042 0 .077-.07.077-.155 0-.086.035-.156.078-.156s.078-.07.078-.156c0-.085.035-.155.078-.155.042 0 .077-.07.077-.156s.035-.156.078-.156.078-.07.078-.155c0-.086.035-.156.078-.156s.077-.07.077-.156c0-.085.035-.155.078-.155s.078-.07.078-.156.035-.156.078-.156c.042 0 .078-.07.078-.155 0-.086.035-.156.077-.156.043 0 .078-.07.078-.156 0-.085.035-.155.078-.155s.078-.07.078-.156.034-.156.077-.156.078-.07.078-.155c0-.086.035-.156.078-.156s.078-.07.078-.156c0-.085.035-.155.077-.155.043 0 .078-.07.078-.156 0-.085.035-.156.078-.156s.078-.07.078-.155c0-.086.035-.156.077-.156.043 0 .078-.07.078-.156 0-.085.035-.155.078-.155s.078-.07.078-.156c0-.085.035-.155.078-.155.042 0 .077-.07.077-.156s.035-.156.078-.156.078-.07.078-.155c0-.086.035-.156.078-.156.042 0 .077-.07.077-.156 0-.085.035-.155.078-.155s.078-.07.078-.156.035-.156.078-.156c.042 0 .077-.07.077-.155 0-.086.035-.156.078-.156s.078-.07.078-.156c0-.085.035-.155.078-.155.042 0 .077-.07.077-.156s.035-.156.078-.156.078-.07.078-.155c0-.086.035-.156.078-.156.042 0 .077-.07.077-.156 0-.085.035-.155.078-.155s.078-.07.078-.156.035-.156.078-.156c.042 0 .078-.07.078-.155 0-.086.035-.156.077-.156.043 0 .078-.07.078-.156 0-.085.035-.155.078-.155s.078-.07.078-.156.034-.156.077-.156.078-.07.078-.155c0-.086.035-.156.078-.156s.078-.07.078-.156c0-.085.035-.155.077-.155.043 0 .078-.07.078-.156s.035-.156.078-.156.078-.07.078-.155c0-.086.035-.156.077-.156.043 0 .078-.07.078-.156 0-.085.035-.155.078-.155s.078-.07.078-.156.035-.156.077-.156c.043 0 .078-.07.078-.155 0-.086.035-.156.078-.156s.078-.105.078-.233c0-.129.035-.234.077-.234.043 0 .078-.07.078-.156 0-.085.035-.155.078-.155s.078-.07.078-.156c0-.085.035-.156.078-.156.042 0 .077-.07.077-.155 0-.086.035-.156.078-.156s.078-.07.078-.155c0-.086.035-.156.078-.156.042 0 .077-.07.077-.156 0-.085.035-.155.078-.155s.078-.07.078-.156.035-.156.078-.156c.042 0 .077-.054.077-.12 0-.127.156-.339.253-.344.032-.002.058.032.058.075zM14.93 42.102c0 .042-.07.077-.155.077-.086 0-.156.035-.156.078s-.053.078-.118.078c-.155 0-.815.66-.815.815 0 .066-.035.119-.078.119-.042 0-.077.14-.077.311 0 .172-.035.312-.078.312s-.078.14-.078.311c0 .171.035.311.078.311s.078.105.078.234c0 .128.035.233.077.233.043 0 .078.07.078.156s.035.156.078.156.078.053.078.119c0 .155.503.659.658.659.066 0 .12.035.12.078 0 .042.104.078.233.078.128 0 .233.035.233.077 0 .052 6.973.078 20.763.078 13.79 0 20.762-.026 20.762-.078 0-.042.07-.077.156-.077.085 0 .155-.035.155-.078s.054-.078.119-.078c.154 0 .814-.66.814-.815 0-.066.035-.12.078-.12s.078-.07.078-.155c0-.085.035-.155.078-.155.045 0 .077-.26.077-.623s-.032-.623-.077-.623c-.043 0-.078-.088-.078-.196 0-.273-.93-1.205-1.204-1.205-.108 0-.196-.035-.196-.077 0-.052-6.998-.078-20.84-.078-13.842 0-20.84.026-20.84.078zm.156 14.009c0 .043-.097.078-.216.078a.425.425 0 00-.328.155c-.062.086-.159.156-.216.156-.141 0-.484.355-.484.502 0 .067-.035.12-.078.12s-.078.07-.078.156-.035.156-.078.156c-.042 0-.077.105-.077.234 0 .128-.035.233-.078.233s-.078.14-.078.311c0 .172.035.312.078.312s.078.14.078.311c0 .171.035.311.077.311.043 0 .078.054.078.119 0 .204.828.971 1.048.971.108 0 .196.035.196.078 0 .051 7.025.078 20.919.078 13.893 0 20.918-.027 20.918-.078 0-.043.062-.078.138-.078.076 0 .189-.07.25-.156.062-.085.16-.155.218-.155.135 0 .327-.192.327-.328 0-.058.07-.156.155-.217a.425.425 0 00.156-.329c0-.119.035-.216.078-.216.045 0 .077-.26.077-.623s-.032-.622-.077-.622c-.043 0-.078-.07-.078-.156 0-.085-.035-.156-.078-.156s-.078-.053-.078-.118c0-.155-.66-.816-.814-.816-.065 0-.119-.035-.119-.077 0-.043-.105-.078-.233-.078s-.233-.035-.233-.078c0-.052-6.947-.078-20.685-.078s-20.685.026-20.685.078zm52.879 6.74c0 .068.105.223.233.343.128.12.233.266.233.325s.07.158.156.22c.085.061.155.16.155.219s.105.205.233.325c.129.12.234.266.234.326 0 .058.07.157.155.219.086.062.156.16.156.22 0 .058.105.205.233.325.128.12.233.266.233.325 0 .06.07.158.156.22.085.061.155.16.155.219s.105.205.234.325c.128.12.233.267.233.326s.07.157.156.22c.085.06.155.16.155.219s.105.205.233.325c.129.12.234.266.234.325 0 .06.07.158.155.22.086.062.156.16.156.22 0 .058.105.205.233.325.128.12.233.274.233.342 0 .11.182.125 1.555.125.986 0 1.556-.029 1.556-.078 0-.05.907-.078 2.566-.078h2.566v.274c0 .222-.067.342-.348.623-.191.192-.385.348-.431.348-.046 0-.325.245-.62.545-.296.3-.576.545-.624.545-.048 0-.257.175-.465.389-.209.214-.418.39-.466.39-.048 0-.293.21-.545.466-.252.257-.497.467-.545.467-.047 0-.292.21-.544.467-.252.257-.497.467-.545.467-.048 0-.258.175-.466.39-.208.213-.418.388-.466.388-.049 0-.259.175-.467.39-.208.213-.418.389-.467.389-.048 0-.258.175-.466.389-.209.214-.418.389-.467.389-.048 0-.258.175-.466.39-.209.213-.418.388-.466.388-.048 0-.293.21-.545.467-.252.257-.497.467-.545.467-.048 0-.258.175-.466.39-.208.213-.418.389-.467.389-.048 0-.258.175-.466.389-.209.214-.418.389-.466.389-.048 0-.293.21-.545.467-.252.257-.505.467-.562.467-.057 0-.154.07-.216.155-.061.086-.174.156-.25.156-.076 0-.139.035-.139.078 0 .115-.228.094-.355-.034a.395.395 0 01-.111-.233c0-.067-.035-.122-.078-.122s-.078-.07-.078-.156c0-.085.035-.156.078-.156.05 0 .078-.7.078-1.945 0-1.246.028-1.946.078-1.946s.077-.675.077-1.868.028-1.868.078-1.868.078-.648.078-1.79c0-1.141.028-1.79.078-1.79.049 0 .077-.545.077-1.479s.029-1.479.078-1.479.078-.493.078-1.323.029-1.323.078-1.323c.042 0 .077-.089.077-.198 0-.265.149-.418.409-.422.145-.002.213.037.213.122zm-52.413 7.27c0 .042-.174.077-.388.077-.214 0-.39.035-.39.078s-.052.078-.117.078c-.154 0-.97.817-.97.971 0 .065-.036.118-.079.118-.042 0-.077.14-.077.312 0 .171-.035.311-.078.311s-.078.14-.078.311c0 .172.035.312.078.312s.078.105.078.233c0 .129.035.234.077.234.043 0 .078.07.078.155 0 .086.035.156.078.156s.078.054.078.12c0 .156.346.503.502.503.066 0 .12.035.12.078 0 .042.07.077.155.077.086 0 .156.035.156.078s.105.078.233.078c.129 0 .234.035.234.078 0 .052 6.92.078 20.607.078 13.686 0 20.607-.026 20.607-.078 0-.043.105-.078.233-.078s.233-.035.233-.078.054-.078.119-.078c.154 0 .814-.66.814-.815 0-.065.035-.119.078-.119s.078-.07.078-.155c0-.086.035-.156.078-.156.045 0 .077-.26.077-.623s-.032-.622-.077-.622c-.043 0-.078-.098-.078-.216a.425.425 0 00-.156-.329c-.085-.062-.155-.159-.155-.215 0-.142-.355-.486-.502-.486-.066 0-.12-.034-.12-.077s-.07-.078-.156-.078c-.085 0-.155-.035-.155-.078s-.175-.078-.39-.078c-.213 0-.388-.035-.388-.078 0-.051-6.791-.078-20.218-.078s-20.218.027-20.218.078zm-.622 14.164c0 .043-.07.078-.155.078-.086 0-.156.035-.156.078s-.053.078-.119.078c-.145 0-.658.5-.658.642 0 .056-.07.152-.156.214-.108.078-.155.201-.155.406 0 .162-.035.294-.078.294s-.078.14-.078.312c0 .171.035.311.078.311s.078.133.078.294c0 .205.047.328.155.407.086.061.156.158.156.214 0 .142.513.642.658.642.066 0 .12.035.12.078 0 .042.07.077.155.077.085 0 .155.035.155.078 0 .052 7 .078 20.84.078 13.842 0 20.841-.026 20.841-.078 0-.043.07-.078.156-.078.085 0 .155-.035.155-.077 0-.043.054-.078.119-.078.154 0 .814-.66.814-.815 0-.066.035-.12.078-.12s.078-.07.078-.155c0-.086.035-.156.078-.156.045 0 .077-.259.077-.622s-.032-.623-.077-.623c-.043 0-.078-.07-.078-.155 0-.086-.035-.156-.078-.156s-.078-.054-.078-.119c0-.154-.66-.815-.814-.815-.065 0-.119-.035-.119-.078s-.07-.078-.155-.078c-.086 0-.156-.035-.156-.078 0-.051-6.998-.077-20.84-.077-13.842 0-20.84.026-20.84.077z" fill="#C12736"/></svg>