<svg width="816" height="195" viewBox="0 0 816 195" fill="none" xmlns="http://www.w3.org/2000/svg"><path d="M51.96 162v4h4v-4h-4zm-47.3 0h-4v4h4v-4zm0-154V4h-4v4h4zm47.3 0h4V4h-4v4zm0 57.42h-4v11.94l7.193-9.53-3.193-2.41zM95.3 8V4h-1.992l-1.2 1.59L95.3 8zm55.66 0l3.18 2.427L159.044 4h-8.084v4zM96.4 79.5l-3.18-2.427-1.89 2.477 1.938 2.439L96.4 79.5zm65.56 82.5v4h8.288l-5.156-6.489L161.96 162zm-58.08 0l-3.152 2.463 1.201 1.537h1.951v-4zM51.96 95.56l3.152-2.463-7.152-9.152V95.56h4zm0 62.44H4.66v8h47.3v-8zm-43.3 4V8h-8v154h8zm-4-150h47.3V4H4.66v8zm43.3-4v57.42h8V8h-8zm7.193 59.83l43.34-57.42-6.386-4.82-43.34 57.42 6.386 4.82zM95.3 12h55.66V4H95.3v8zm52.48-6.427l-54.56 71.5 6.36 4.854 54.56-71.5-6.36-4.854zM93.268 81.99l65.56 82.5 6.264-4.978-65.56-82.5-6.264 4.978zM161.96 158h-58.08v8h58.08v-8zm-54.928 1.537l-51.92-66.44-6.304 4.926 51.92 66.44 6.304-4.926zM47.96 95.56V162h8V95.56h-8zM207.919 162v4h2.736l.992-2.549-3.728-1.451zm-48.84 0l-3.702-1.515-2.256 5.515h5.958v-4zm63.36-154.88v-4h-2.685l-1.017 2.485 3.702 1.515zm45.1 0l3.701-1.519-1.019-2.481h-2.682v4zM331.119 162v4h5.966l-2.265-5.519-3.701 1.519zm-50.82 0l-3.737 1.426.983 2.574h2.754v-4zm-11-28.82l3.737-1.426-.982-2.574h-2.755v4zm-50.16 0v-4h-2.735l-.992 2.549 3.727 1.451zm25.08-71.94l3.824-1.175-3.787-12.325-3.854 12.304 3.817 1.196zm-11.44 36.52l-3.817-1.196-1.627 5.196h5.444v-4zm22.66 0v4h5.414l-1.59-5.175-3.824 1.175zM207.919 158h-48.84v8h48.84v-8zm-45.137 5.515l63.36-154.88-7.405-3.03-63.36 154.88 7.405 3.03zM222.439 11.12h45.1v-8h-45.1v8zm41.4-2.481l63.58 154.88 7.401-3.038-63.58-154.88-7.401 3.038zM331.119 158h-50.82v8h50.82v-8zm-47.083 2.574l-11-28.82-7.474 2.852 11 28.82 7.474-2.852zm-14.737-31.394h-50.16v8h50.16v-8zm-53.887 2.549l-11.22 28.82 7.455 2.902 11.22-28.82-7.455-2.902zm24.99-71.685l-11.44 36.52 7.634 2.392 11.44-36.52-7.634-2.392zm-7.623 41.716h22.66v-8h-22.66v8zm26.484-5.175l-11.22-36.52-7.647 2.35 11.22 36.52 7.647-2.35zM342.824 8V4h-4v4h4zm113.08 14.08l-2.678 2.971.02.019.021.018 2.637-3.008zm0 72.16l-2.637-3.008-.021.018-.02.019 2.678 2.971zm-65.78 14.08v-4h-4v4h4zm0 53.68v4h4v-4h-4zm-47.3 0h-4v4h4v-4zm47.3-88h-4v4h4v-4zm28.82-3.74l2.591 3.048.006-.006.006-.005-2.603-3.037zm0-20.02l-2.517 3.109 2.517-3.109zm-28.82-3.74v-4h-4v4h4zm-47.3-34.5h70.84V4h-70.84v8zm70.84 0c17.03 0 30.063 4.489 39.562 13.051l5.356-5.942C447.254 8.898 432.128 4 413.664 4v8zm39.603 13.088c9.811 8.601 14.697 19.518 14.697 33.072h8c0-15.78-5.821-28.916-17.423-39.088l-5.274 6.016zm14.697 33.072c0 13.554-4.886 24.47-14.697 33.072l5.274 6.016c11.602-10.172 17.423-23.309 17.423-39.088h-8zm-14.738 33.109c-9.499 8.562-22.532 13.051-39.562 13.051v8c18.464 0 33.59-4.898 44.918-15.109l-5.356-5.942zm-39.562 13.051h-23.54v8h23.54v-8zm-27.54 4V162h8v-53.68h-8zm4 49.68h-47.3v8h47.3v-8zm-43.3 4V8h-8v154h8zm43.3-84h17.16v-8h-17.16v8zm17.16 0c5.538 0 10.423-1.439 14.251-4.692l-5.182-6.096c-2.039 1.734-4.927 2.788-9.069 2.788v8zm14.263-4.703c3.979-3.41 6.017-7.9 6.017-13.157h-8c0 2.956-1.042 5.214-3.223 7.083l5.206 6.074zm6.017-13.157c0-5.263-2.046-9.725-6.103-13.009l-5.034 6.218c2.103 1.703 3.137 3.84 3.137 6.791h8zm-6.103-13.009c-3.918-3.172-8.744-4.631-14.177-4.631v8c3.953 0 6.901 1.034 9.143 2.849l5.034-6.218zM407.284 42.5h-17.16v8h17.16v-8zm-21.16 4V74h8V46.5h-8zm123.742 143.88v4h4v-4h-4zm-44.22 0h-4v4h4v-4zm0-69.08v-4h-4v4h4zm15.62 0v4h2.35l1.144-2.053-3.494-1.947zM496.226 8V4h-4v4h4zm119.9 0h4V4h-4v4zm0 113.3h-4v4h4v-4zm19.36 0h4v-4h-4v4zm0 69.08v4h4v-4h-4zm-44.44 0h-4v4h4v-4zm0-28.38h4v-4h-4v4zm-81.18 0v-4h-4v4h4zm18.92-40.7l-3.604-1.735-2.761 5.735h6.365v-4zm40.26 0v4h4v-4h-4zm0-72.6h4v-4h-4v4zm-28.38 0v-4h-4v4h4zm-3.08 39.38l3.959.571.002-.01.001-.012-3.962-.549zm-27.72 98.3h-44.22v8h44.22v-8zm-40.22 4V121.3h-8v69.08h8zm-4-65.08h15.62v-8h-15.62v8zm19.114-2.053c10.48-18.803 15.466-47.437 15.466-85.327h-8c0 37.496-4.988 64.449-14.454 81.433l6.988 3.894zm15.466-85.327V8h-8v29.92h8zm-4-25.92h119.9V4h-119.9v8zm115.9-4v113.3h8V8h-8zm4 117.3h19.36v-8h-19.36v8zm15.36-4v69.08h8V121.3h-8zm4 65.08h-44.44v8h44.44v-8zm-40.44 4V162h-8v28.38h8zm-4-32.38h-81.18v8h81.18v-8zm-85.18 4v28.38h8V162h-8zm22.92-36.7h40.26v-8h-40.26v8zm44.26-4V48.7h-8v72.6h8zm-4-76.6h-28.38v8h28.38v-8zm-32.38 4c0 11.21-1.007 24.148-3.042 38.83l7.924 1.1c2.071-14.944 3.118-28.26 3.118-39.93h-8zm-3.039 38.809c-2.027 14.044-4.885 24.662-8.445 32.056l7.208 3.47c4.067-8.446 7.075-19.975 9.155-34.384l-7.918-1.142zm171.608 24.111l-2.977 2.672.028.031.028.031 2.921-2.734zm48.84 0l2.92 2.734.028-.031.028-.031-2.976-2.672zm0-53.02l-2.98 2.669.029.033.03.032 2.921-2.734zm-48.84 0l2.92 2.734.03-.032.029-.033-2.979-2.669zm-34.76 82.94l2.828-2.828-2.828 2.828zm0-113.08l2.828 2.828-2.828-2.828zm118.14 0l2.828-2.828-2.828 2.828zm0 113.3l-2.829-2.828 2.829 2.828zm-86.301-27.406c7.244 7.737 16.458 11.606 27.341 11.606v-8c-8.771 0-15.837-3.025-21.5-9.074l-5.841 5.468zm27.341 11.606c10.882 0 20.096-3.869 27.34-11.606l-5.841-5.468c-5.663 6.049-12.729 9.074-21.499 9.074v8zm27.396-11.668c7.176-7.991 10.704-17.845 10.704-29.292h-8c0 9.673-2.926 17.566-8.657 23.947l5.953 5.345zM767.755 85c0-11.575-3.519-21.399-10.76-29.134l-5.841 5.468c5.666 6.051 8.601 13.828 8.601 23.666h8zm-10.701-29.069c-7.112-7.938-16.36-11.891-27.399-11.891v8c8.907 0 15.938 3.087 21.44 9.229l5.959-5.338zM729.655 44.04c-11.04 0-20.288 3.953-27.4 11.891l5.959 5.338c5.502-6.142 12.533-9.229 21.441-9.229v-8zm-27.341 11.826c-7.241 7.735-10.759 17.559-10.759 29.134h8c0-9.838 2.934-17.615 8.6-23.666l-5.841-5.468zM691.555 85c0 11.447 3.527 21.301 10.703 29.292l5.953-5.345c-5.731-6.381-8.656-14.274-8.656-23.947h-8zm-18.252 53.712c-14.79-14.791-22.148-32.618-22.148-53.712h-8c0 23.199 8.188 43.065 24.491 59.368l5.657-5.656zM651.155 85c0-21.094 7.358-38.921 22.148-53.712l-5.657-5.656C651.343 41.934 643.155 61.802 643.155 85h8zm22.148-53.712C688.19 16.402 706.872 8.92 729.655 8.92v-8c-24.738 0-45.509 8.211-62.009 24.712l5.657 5.656zM729.655 8.92c22.627 0 41.24 7.477 56.131 22.368l5.657-5.656C774.948 9.136 754.253.92 729.655.92v8zm56.131 22.368c14.79 14.79 22.149 32.618 22.149 53.712h8c0-23.199-8.189-43.066-24.492-59.368l-5.657 5.656zM807.935 85c0 21.249-7.364 39.147-22.149 53.932l5.657 5.656c16.308-16.308 24.492-36.25 24.492-59.588h-8zm-22.149 53.932c-14.732 14.732-33.338 22.148-56.131 22.148v8c24.726 0 45.427-8.13 61.788-24.492l-5.657-5.656zm-56.131 22.148c-22.783 0-41.465-7.482-56.352-22.368l-5.657 5.656c16.5 16.501 37.271 24.712 62.009 24.712v-8z" fill="#C12736" fill-opacity=".2"/></svg>