<svg version="1.1" id="Layer_1" xmlns="http://www.w3.org/2000/svg" xmlns:xlink="http://www.w3.org/1999/xlink" x="0" y="0" viewBox="0 0 283.5 283.5" xml:space="preserve"><path d="M120 70.9h43.5c39.7 0 49.1 9.4 49.1 49.1v43.5c0 39.7-9.4 49.1-49.1 49.1H120c-39.7 0-49.1-9.4-49.1-49.1V120c0-39.7 9.4-49.1 49.1-49.1" fill-rule="evenodd" clip-rule="evenodd" fill="#4680c2"/><path d="M186.9 119.7c.7-2.2 0-3.8-3.1-3.8h-10.3c-2.6 0-3.8 1.4-4.5 2.9 0 0-5.3 12.8-12.7 21.1-2.4 2.4-3.5 3.2-4.8 3.2-.7 0-1.6-.8-1.6-3v-20.5c0-2.6-.8-3.8-3-3.8h-16.2c-1.6 0-2.6 1.2-2.6 2.4 0 2.5 3.7 3.1 4.1 10.1v15.2c0 3.3-.6 3.9-1.9 3.9-3.5 0-12-12.9-17.1-27.6-1-2.9-2-4-4.6-4H98.2c-3 0-3.5 1.4-3.5 2.9 0 2.7 3.5 16.3 16.3 34.3 8.5 12.3 20.6 18.9 31.5 18.9 6.6 0 7.4-1.5 7.4-4v-9.3c0-3 .6-3.5 2.7-3.5 1.5 0 4.2.8 10.3 6.7 7 7 8.2 10.2 12.1 10.2h10.3c3 0 4.4-1.5 3.6-4.4-.9-2.9-4.3-7.1-8.7-12.1-2.4-2.8-6-5.9-7.1-7.4-1.5-2-1.1-2.8 0-4.6-.1 0 12.5-17.8 13.8-23.8" fill-rule="evenodd" clip-rule="evenodd" fill="#fff"/></svg>